<svg width="512" height="256" viewBox="0 0 512 256" xmlns="http://www.w3.org/2000/svg">
  <defs>
    <filter id="shadow" x="-30%" y="-30%" width="160%" height="160%">
      <feDropShadow dx="0" dy="8" stdDeviation="6" flood-color="#000" flood-opacity="0.35"/>
    </filter>
    <filter id="inner-shadow">
      <feOffset dx="0" dy="0"/>
      <feGaussianBlur stdDeviation="4" result="offset-blur"/>
      <feComposite operator="out" in="SourceGraphic" in2="offset-blur" result="inverse"/>
      <feFlood flood-color="black" flood-opacity="0.4" result="color"/>
      <feComposite operator="in" in="color" in2="inverse" result="shadow"/>
      <feComposite operator="over" in="shadow" in2="SourceGraphic"/>
    </filter>

    <radialGradient id="crust-sourdough" cx="50%" cy="50%" r="50%">
      <stop offset="50%" stop-color="#DEC199"/>
      <stop offset="100%" stop-color="#B3956F"/>
    </radialGradient>
    <radialGradient id="inner-sourdough" cx="45%" cy="45%" r="65%">
      <stop offset="0%" stop-color="#FFFDF2"/>
      <stop offset="100%" stop-color="#EFE7CF"/>
    </radialGradient>
  
  </defs>
  <g filter="url(#shadow)">

    <!-- Cartoony Bread Crust -->
    <path d="M 256 20 C 460 20, 492 60, 492 128 C 492 196, 460 236, 256 236 C 52 236, 20 196, 20 128 C 20 60, 52 20, 256 20 Z" fill="url(#crust-sourdough)" stroke="#80694B" stroke-width="12" stroke-linejoin="round"/>
          
    <!-- Inner bread crumb -->
    <path d="M 256 32 C 436 32, 460 68, 460 128 C 460 188, 436 224, 256 224 C 76 224, 52 188, 52 128 C 52 68, 76 32, 256 32 Z" fill="url(#inner-sourdough)"/>
          
    <!-- Inner soft shadow / rim -->
    <path d="M 256 32 C 436 32, 460 68, 460 128 C 460 188, 436 224, 256 224 C 76 224, 52 188, 52 128 C 52 68, 76 32, 256 32 Z" fill="none" stroke="#DFD1B0" stroke-width="12" opacity="0.85" filter="blur(3px)"/>

    <g>
      <ellipse cx="187.99452488846012" cy="221.85368282709442" rx="7.078258458708361" ry="4.941118093443741" fill="#C8B898" opacity="0.85" filter="url(#inner-shadow)" />
<ellipse cx="477.2182163849491" cy="121.79399215271786" rx="9.469687947398725" ry="8.932712292654218" fill="#C8B898" opacity="0.85" filter="url(#inner-shadow)" />
<circle cx="394.5913711544241" cy="196.89344221434916" r="2.031053385531504" fill="#C2B084" opacity="0.75"/>
<circle cx="462.2964179269161" cy="99.01018162295996" r="2.5227010564767878" fill="#C2B084" opacity="0.75"/>
<circle cx="353.4008913399565" cy="119.1620033357883" r="3.7120249951047164" fill="#C2B084" opacity="0.75"/>
<circle cx="451.0104911233538" cy="152.87398220314645" r="3.0097538655581833" fill="#C2B084" opacity="0.75"/>
<circle cx="43.89510767429234" cy="75.26546587448166" r="1.4103799224990263" fill="#C2B084" opacity="0.75"/>
<circle cx="275.85181878695016" cy="192.29984670613044" r="2.8585652014922425" fill="#C2B084" opacity="0.75"/>
<circle cx="129.26731855716713" cy="165.07559636261607" r="2.480057170465388" fill="#C2B084" opacity="0.75"/>
<circle cx="294.4360049565241" cy="84.0993634440079" r="2.1003767027878104" fill="#C2B084" opacity="0.75"/>
<circle cx="380.8932181356091" cy="137.26650560832005" r="1.2925975130280167" fill="#C2B084" opacity="0.75"/>
<circle cx="325.90579069015473" cy="151.61462732520457" r="1.828691065135555" fill="#C2B084" opacity="0.75"/>
<ellipse cx="67.4744675908528" cy="31.201180413174967" rx="7.4640894610234865" ry="5.36495328329379" fill="#C8B898" opacity="0.85" filter="url(#inner-shadow)" />
<circle cx="47.94681348795896" cy="91.19056916756264" r="3.125246297169585" fill="#C2B084" opacity="0.75"/>
<circle cx="266.28829291414513" cy="115.2805103845186" r="1.7057759138562965" fill="#C2B084" opacity="0.75"/>
<circle cx="71.64971552760696" cy="100.36478995809128" r="2.8386353943304963" fill="#C2B084" opacity="0.75"/>
<circle cx="363.35410888250846" cy="91.4372359806094" r="2.5193690782736633" fill="#C2B084" opacity="0.75"/>
<ellipse cx="131.29051439163004" cy="112.6806610150925" rx="10.950621028157755" ry="4.487242832824329" fill="#C8B898" opacity="0.85" filter="url(#inner-shadow)" />
<circle cx="474.0091399107722" cy="209.93078981631282" r="3.3259839441981804" fill="#C2B084" opacity="0.75"/>
<circle cx="39.094768818251" cy="165.22316974410734" r="3.0078572255942078" fill="#C2B084" opacity="0.75"/>
<circle cx="377.8089679006087" cy="206.10237466444178" r="3.673473498837436" fill="#C2B084" opacity="0.75"/>
<circle cx="178.0111053678015" cy="62.23242259237051" r="2.0866912156857618" fill="#C2B084" opacity="0.75"/>
<circle cx="267.0221221307694" cy="85.50804608991453" r="2.315249735400004" fill="#C2B084" opacity="0.75"/>
<circle cx="473.0669557792636" cy="171.86189663279305" r="2.8986956292817734" fill="#C2B084" opacity="0.75"/>
<ellipse cx="111.30274111466211" cy="105.35620224971164" rx="7.381236901035045" ry="7.602614328791331" fill="#C8B898" opacity="0.85" filter="url(#inner-shadow)" />
<ellipse cx="36.20592714493405" cy="37.01859494168556" rx="4.164714921200261" ry="5.46860373125342" fill="#C8B898" opacity="0.85" filter="url(#inner-shadow)" />
<circle cx="267.40444342416527" cy="216.12391641318987" r="3.130823976557819" fill="#C2B084" opacity="0.75"/>
<circle cx="437.21081770703074" cy="103.48146438156174" r="1.1161705735303284" fill="#C2B084" opacity="0.75"/>
<circle cx="183.788886652269" cy="180.85279099197106" r="2.769290381058483" fill="#C2B084" opacity="0.75"/>
<circle cx="392.2139524615162" cy="176.25399677767368" r="3.122577969397168" fill="#C2B084" opacity="0.75"/>
<circle cx="336.80821824385686" cy="62.35754265439388" r="1.4755129280383628" fill="#C2B084" opacity="0.75"/>
<circle cx="347.43681533439053" cy="41.59058860370355" r="2.452375367533006" fill="#C2B084" opacity="0.75"/>
<circle cx="89.80861403861914" cy="131.65041068010103" r="3.2376927095536785" fill="#C2B084" opacity="0.75"/>
<ellipse cx="370.671959780528" cy="164.53045942184826" rx="10.958390351492852" ry="3.3363263664461007" fill="#C8B898" opacity="0.85" filter="url(#inner-shadow)" />
<ellipse cx="113.22026875369843" cy="99.03306177839507" rx="4.790272362497297" ry="7.434500634558926" fill="#C8B898" opacity="0.85" filter="url(#inner-shadow)" />
<circle cx="35.68418511674223" cy="32.37581788407835" r="2.7505059198845974" fill="#C2B084" opacity="0.75"/>
<circle cx="438.85427057254793" cy="56.16490376127963" r="2.4201090260593396" fill="#C2B084" opacity="0.75"/>
<ellipse cx="475.5093233230059" cy="61.278565361334216" rx="7.366857425454795" ry="4.4287746223254105" fill="#C8B898" opacity="0.85" filter="url(#inner-shadow)" />
<circle cx="125.22765480241718" cy="162.0565344693703" r="1.4426113181681979" fill="#C2B084" opacity="0.75"/>
<circle cx="142.16097884725664" cy="63.80636052539483" r="3.555496863870356" fill="#C2B084" opacity="0.75"/>
<circle cx="82.43174469480331" cy="150.0266478739285" r="3.078958675108632" fill="#C2B084" opacity="0.75"/>
<ellipse cx="295.53974612855274" cy="184.25657939604292" rx="10.556902205443642" ry="7.779124560440806" fill="#C8B898" opacity="0.85" filter="url(#inner-shadow)" />
<circle cx="88.66816091271514" cy="160.13003239595406" r="2.9879126466212793" fill="#C2B084" opacity="0.75"/>
<circle cx="377.544407225217" cy="224.91145976000593" r="1.927050781776816" fill="#C2B084" opacity="0.75"/>
<circle cx="419.7725597998342" cy="208.56014456750486" r="3.807898773124478" fill="#C2B084" opacity="0.75"/>
<circle cx="188.9799929790448" cy="121.24660460195834" r="3.35392142366147" fill="#C2B084" opacity="0.75"/>
<circle cx="79.17998482202157" cy="214.2820180621016" r="1.2184407605017893" fill="#C2B084" opacity="0.75"/>
<circle cx="107.95129605660402" cy="200.52704797926287" r="2.3648992818932952" fill="#C2B084" opacity="0.75"/>
<circle cx="204.04192038662188" cy="159.35430871716963" r="1.9905102953171516" fill="#C2B084" opacity="0.75"/>
<circle cx="161.06508606950297" cy="115.73207402994153" r="3.643230847839094" fill="#C2B084" opacity="0.75"/>
<ellipse cx="346.62252231874044" cy="167.61320422482223" rx="9.433430168707993" ry="3.782834601745131" fill="#C8B898" opacity="0.85" filter="url(#inner-shadow)" />
<circle cx="474.8821279870895" cy="177.56444111502765" r="2.7982757160800698" fill="#C2B084" opacity="0.75"/>
<circle cx="255.1621027572489" cy="136.69063859215294" r="1.033429347647484" fill="#C2B084" opacity="0.75"/>
<circle cx="320.8214759438317" cy="200.91114738991214" r="1.6814509600545415" fill="#C2B084" opacity="0.75"/>
<circle cx="430.91676573198595" cy="158.89289444099813" r="1.1082189419303066" fill="#C2B084" opacity="0.75"/>
<circle cx="443.2050411317427" cy="49.8866538714762" r="3.778793916209443" fill="#C2B084" opacity="0.75"/>
<ellipse cx="189.49980407305475" cy="48.12760903118419" rx="4.5217397439994045" ry="8.871898785260802" fill="#C8B898" opacity="0.85" filter="url(#inner-shadow)" />
<circle cx="347.67858620083956" cy="89.0440410350426" r="1.7145477753012857" fill="#C2B084" opacity="0.75"/>
<ellipse cx="452.28084405798467" cy="45.565892965971074" rx="5.424205739295818" ry="5.446647793876418" fill="#C8B898" opacity="0.85" filter="url(#inner-shadow)" />
<circle cx="156.45618296612878" cy="108.05986541934692" r="1.603788900920422" fill="#C2B084" opacity="0.75"/>
<circle cx="320.05079886702333" cy="142.36984179403038" r="2.5017092836344275" fill="#C2B084" opacity="0.75"/>
<circle cx="89.40009605744208" cy="55.84530655041046" r="2.7654228063905366" fill="#C2B084" opacity="0.75"/>
<ellipse cx="261.6838292389163" cy="218.2063191721664" rx="5.188683176918696" ry="8.862942942351975" fill="#C8B898" opacity="0.85" filter="url(#inner-shadow)" />
<circle cx="126.19284632406215" cy="92.43871794419655" r="2.0301041442482926" fill="#C2B084" opacity="0.75"/>
<circle cx="360.8471107524168" cy="119.02547662637565" r="1.7682321461047912" fill="#C2B084" opacity="0.75"/>
<circle cx="230.22353183089743" cy="204.82795943386597" r="1.6976457406897634" fill="#C2B084" opacity="0.75"/>
<circle cx="88.68605203057561" cy="176.11875893606654" r="3.909345767166837" fill="#C2B084" opacity="0.75"/>
<circle cx="180.39980310259182" cy="80.51609241474277" r="3.7638139230595513" fill="#C2B084" opacity="0.75"/>
<circle cx="178.43123653065408" cy="80.0223371441501" r="1.7615910794772922" fill="#C2B084" opacity="0.75"/>
<circle cx="78.78824093019107" cy="202.83050321108814" r="2.8907720161706196" fill="#C2B084" opacity="0.75"/>
<circle cx="147.8396686046745" cy="95.43835713393942" r="1.6142315000047562" fill="#C2B084" opacity="0.75"/>
<circle cx="37.804324531464616" cy="42.23386560465994" r="3.9099407289181993" fill="#C2B084" opacity="0.75"/>
<circle cx="75.90787976540783" cy="185.67560748808594" r="2.999610276805094" fill="#C2B084" opacity="0.75"/>
<circle cx="433.93350080244875" cy="119.25977419464508" r="2.3405213729838747" fill="#C2B084" opacity="0.75"/>
<circle cx="191.79175429084873" cy="173.2168989643755" r="3.919111564233977" fill="#C2B084" opacity="0.75"/>
<circle cx="194.4651580496933" cy="201.36388887420142" r="3.827791732798369" fill="#C2B084" opacity="0.75"/>
<circle cx="296.07817630963564" cy="211.3239266275224" r="2.5561208913075397" fill="#C2B084" opacity="0.75"/>
<circle cx="305.57339063693473" cy="114.6042029379379" r="2.0197102743640953" fill="#C2B084" opacity="0.75"/>
<circle cx="217.72604711801256" cy="153.82407344677495" r="3.632565169716753" fill="#C2B084" opacity="0.75"/>
<circle cx="447.09124166187917" cy="83.81505125100259" r="3.0146243553942913" fill="#C2B084" opacity="0.75"/>
<circle cx="475.0785185576306" cy="92.66009075574014" r="3.9971377464336495" fill="#C2B084" opacity="0.75"/>
<circle cx="104.59241084323848" cy="173.05271769008561" r="1.543272433132469" fill="#C2B084" opacity="0.75"/>
<circle cx="404.6781959045157" cy="124.07243001377697" r="2.2725910502262208" fill="#C2B084" opacity="0.75"/>
<circle cx="269.9214568820868" cy="147.7596320875632" r="3.4574037630031" fill="#C2B084" opacity="0.75"/>
<ellipse cx="43.55820777779573" cy="54.97482988806507" rx="10.114151805777084" ry="4.1205676957452795" fill="#C8B898" opacity="0.85" filter="url(#inner-shadow)" />
<ellipse cx="124.6429294035927" cy="195.45915232971637" rx="10.399694923905681" ry="6.316643559917672" fill="#C8B898" opacity="0.85" filter="url(#inner-shadow)" />
<circle cx="139.92845359215943" cy="107.58945461322833" r="1.5633182872527982" fill="#C2B084" opacity="0.75"/>
<circle cx="300.5333539495302" cy="45.17929185192802" r="2.627551307022695" fill="#C2B084" opacity="0.75"/>
<circle cx="159.0718554099694" cy="38.53199568399495" r="2.2655301062389643" fill="#C2B084" opacity="0.75"/>
<ellipse cx="176.6177440156545" cy="79.21106387852754" rx="6.037095015477197" ry="6.051322851993319" fill="#C8B898" opacity="0.85" filter="url(#inner-shadow)" />
<circle cx="164.9487382897593" cy="83.60436924361267" r="3.762978359596403" fill="#C2B084" opacity="0.75"/>
<ellipse cx="434.8782374295933" cy="128.75255641231135" rx="9.517080777406608" ry="3.2643777971414925" fill="#C8B898" opacity="0.85" filter="url(#inner-shadow)" />
<circle cx="410.52719766852925" cy="183.2740610546279" r="3.9797142251321804" fill="#C2B084" opacity="0.75"/>
<ellipse cx="243.27630227755384" cy="149.23422600683125" rx="11.760929314591529" ry="8.549222086182933" fill="#C8B898" opacity="0.85" filter="url(#inner-shadow)" />
<circle cx="335.0453142063804" cy="188.22027473989672" r="1.2288424848019726" fill="#C2B084" opacity="0.75"/>
<circle cx="368.6988028579547" cy="167.62639508409876" r="2.19540558859337" fill="#C2B084" opacity="0.75"/>
<circle cx="429.17081444090644" cy="168.82197386126188" r="3.1396015051029402" fill="#C2B084" opacity="0.75"/>
<circle cx="423.17005630291357" cy="170.40404202324783" r="2.345562947890473" fill="#C2B084" opacity="0.75"/>
<circle cx="441.5130302138867" cy="174.1529162399529" r="3.866088983095729" fill="#C2B084" opacity="0.75"/>
<circle cx="123.68708271185896" cy="59.834276372097946" r="2.3626445931195525" fill="#C2B084" opacity="0.75"/>
<ellipse cx="328.3305425569248" cy="106.11449341326612" rx="11.427690592272253" ry="7.04035275149156" fill="#C8B898" opacity="0.85" filter="url(#inner-shadow)" />
<ellipse cx="355.88137953624073" cy="149.9449837859018" rx="6.904380515746414" ry="4.889843410469374" fill="#C8B898" opacity="0.85" filter="url(#inner-shadow)" />
<circle cx="88.55306302322754" cy="72.75523881782166" r="3.4102818332505525" fill="#C2B084" opacity="0.75"/>
<circle cx="462.07362600165345" cy="156.15219203026817" r="1.965632766404958" fill="#C2B084" opacity="0.75"/>
<circle cx="385.5637012291197" cy="148.42679320416778" r="2.440251163782204" fill="#C2B084" opacity="0.75"/>
<ellipse cx="52.55450826423919" cy="83.30613966078378" rx="7.154362148702346" ry="5.504313700808388" fill="#C8B898" opacity="0.85" filter="url(#inner-shadow)" />
<circle cx="235.0968057135603" cy="173.4588191386977" r="3.978589117114457" fill="#C2B084" opacity="0.75"/>
<circle cx="47.535956255302835" cy="84.19935597423316" r="3.763380569122506" fill="#C2B084" opacity="0.75"/>
<circle cx="377.12672869694586" cy="81.85929514152127" r="1.9835552661494469" fill="#C2B084" opacity="0.75"/>
<circle cx="441.10118615260905" cy="109.01996691620926" r="3.326568130420701" fill="#C2B084" opacity="0.75"/>
<circle cx="340.3908078862667" cy="205.69400475490235" r="2.1769091324956333" fill="#C2B084" opacity="0.75"/>
<circle cx="291.8817946824112" cy="157.07983617165257" r="2.108003875160033" fill="#C2B084" opacity="0.75"/>
<circle cx="141.36589557282377" cy="30.967307856445085" r="1.0786074701017463" fill="#C2B084" opacity="0.75"/>
<circle cx="176.1250486446048" cy="147.27248862542055" r="2.9205373728654163" fill="#C2B084" opacity="0.75"/>
<circle cx="123.38571463639748" cy="36.15582399313517" r="3.934154488612792" fill="#C2B084" opacity="0.75"/>
<circle cx="444.36197087924285" cy="136.8993832068631" r="1.7356891281319744" fill="#C2B084" opacity="0.75"/>
<circle cx="412.6222470606021" cy="224.8448543183891" r="2.7614287749975355" fill="#C2B084" opacity="0.75"/>
<circle cx="174.3178440125917" cy="130.81928545654884" r="3.3949710647567426" fill="#C2B084" opacity="0.75"/>
<circle cx="205.41180156611722" cy="56.83917176897465" r="1.7996756485045544" fill="#C2B084" opacity="0.75"/>
<circle cx="328.0040989562024" cy="133.99838864950195" r="3.8153364808707644" fill="#C2B084" opacity="0.75"/>
<ellipse cx="277.8719841040811" cy="221.46632411268033" rx="10.655965556044002" ry="3.0212734738336744" fill="#C8B898" opacity="0.85" filter="url(#inner-shadow)" />
<circle cx="225.33992016227594" cy="207.8401181895387" r="1.9800479879247546" fill="#C2B084" opacity="0.75"/>
<circle cx="479.59909123517826" cy="199.16294605259307" r="2.556844140106081" fill="#C2B084" opacity="0.75"/>
<ellipse cx="247.37906777804739" cy="79.90700629365939" rx="10.35161821979758" ry="7.971894993605513" fill="#C8B898" opacity="0.85" filter="url(#inner-shadow)" />
<circle cx="262.7873128753869" cy="167.48131303789003" r="3.3904405869906635" fill="#C2B084" opacity="0.75"/>
<circle cx="447.8568171792474" cy="209.23349887031966" r="3.9061043367923873" fill="#C2B084" opacity="0.75"/>
<circle cx="249.28791708856093" cy="169.72739195951488" r="2.057446428962732" fill="#C2B084" opacity="0.75"/>
<circle cx="267.05602406194237" cy="157.6204249686797" r="1.6214415827278066" fill="#C2B084" opacity="0.75"/>
<circle cx="192.37150139871062" cy="178.48406699399052" r="3.6602061247058923" fill="#C2B084" opacity="0.75"/>
<ellipse cx="368.5275868470328" cy="109.46854973268871" rx="5.242727846791502" ry="7.767411305104836" fill="#C8B898" opacity="0.85" filter="url(#inner-shadow)" />
<circle cx="107.87215909041078" cy="174.57583074801784" r="3.5211598547152927" fill="#C2B084" opacity="0.75"/>
<circle cx="262.7150025473645" cy="146.59917963467134" r="3.244251469757286" fill="#C2B084" opacity="0.75"/>
<circle cx="148.9252841394529" cy="47.04331743670622" r="1.0524924717009867" fill="#C2B084" opacity="0.75"/>
<circle cx="185.63925238802034" cy="214.9694794337701" r="3.740658068945538" fill="#C2B084" opacity="0.75"/>
<ellipse cx="443.9419397071628" cy="111.3823869310544" rx="5.631923007286719" ry="3.9364335567957696" fill="#C8B898" opacity="0.85" filter="url(#inner-shadow)" />
<ellipse cx="376.6902473767389" cy="153.2496798360477" rx="4.151421949595679" ry="5.454547241745601" fill="#C8B898" opacity="0.85" filter="url(#inner-shadow)" />
<ellipse cx="354.5632796046464" cy="52.780982676251384" rx="10.817345133302094" ry="3.4959820435568147" fill="#C8B898" opacity="0.85" filter="url(#inner-shadow)" />
<ellipse cx="348.8918742177177" cy="207.16364564706393" rx="10.112500444560776" ry="3.494270014413864" fill="#C8B898" opacity="0.85" filter="url(#inner-shadow)" />
<circle cx="80.19827195803379" cy="120.03821823224239" r="2.0333017424892565" fill="#C2B084" opacity="0.75"/>
<ellipse cx="463.55428596311606" cy="123.1950294529807" rx="7.967100921968086" ry="4.197594659477211" fill="#C8B898" opacity="0.85" filter="url(#inner-shadow)" />
<circle cx="435.86254700690347" cy="103.59052839555464" r="3.2775443157422464" fill="#C2B084" opacity="0.75"/>
<circle cx="268.78715698089627" cy="80.31143305854042" r="1.8927010036993397" fill="#C2B084" opacity="0.75"/>
<circle cx="450.0072030274612" cy="146.2267041706135" r="1.2834733266852125" fill="#C2B084" opacity="0.75"/>
<ellipse cx="232.3704765838188" cy="126.6693251743293" rx="10.191207730023072" ry="3.885236737225676" fill="#C8B898" opacity="0.85" filter="url(#inner-shadow)" />
<ellipse cx="466.93674134182055" cy="49.37290237937035" rx="5.929918232759684" ry="4.338792375227253" fill="#C8B898" opacity="0.85" filter="url(#inner-shadow)" />
<circle cx="47.95800658211762" cy="120.06412662970267" r="1.2867808549507265" fill="#C2B084" opacity="0.75"/>
<circle cx="115.93500850273891" cy="142.73142234543946" r="2.944534189181482" fill="#C2B084" opacity="0.75"/>
<circle cx="279.95602817514265" cy="47.49550911326541" r="2.6471888782924946" fill="#C2B084" opacity="0.75"/>
<ellipse cx="436.6812092072055" cy="85.73589909051796" rx="4.382595891221446" ry="8.076741815774167" fill="#C8B898" opacity="0.85" filter="url(#inner-shadow)" />
<circle cx="311.23447925577983" cy="84.00302820698607" r="3.1479537063546235" fill="#C2B084" opacity="0.75"/>

    </g>
    
    <path d="M 64 64 C 180 44, 320 40, 450 48" fill="none" stroke="#FFFFFF" stroke-width="8" stroke-linecap="round" opacity="0.35"/>
  
  </g>
</svg>