<svg width="512" height="256" viewBox="0 0 512 256" xmlns="http://www.w3.org/2000/svg">
  <defs>
    <filter id="shadow" x="-30%" y="-30%" width="160%" height="160%">
      <feDropShadow dx="0" dy="8" stdDeviation="6" flood-color="#000" flood-opacity="0.35"/>
    </filter>
    <filter id="inner-shadow">
      <feOffset dx="0" dy="0"/>
      <feGaussianBlur stdDeviation="4" result="offset-blur"/>
      <feComposite operator="out" in="SourceGraphic" in2="offset-blur" result="inverse"/>
      <feFlood flood-color="black" flood-opacity="0.4" result="color"/>
      <feComposite operator="in" in="color" in2="inverse" result="shadow"/>
      <feComposite operator="over" in="shadow" in2="SourceGraphic"/>
    </filter>

    <radialGradient id="crust-white" cx="50%" cy="50%" r="50%">
      <stop offset="50%" stop-color="#EAA655"/>
      <stop offset="100%" stop-color="#D9822B"/>
    </radialGradient>
    <radialGradient id="inner-white" cx="45%" cy="45%" r="65%">
      <stop offset="0%" stop-color="#FFFFFF"/>
      <stop offset="100%" stop-color="#FFF5E6"/>
    </radialGradient>
  
  </defs>
  <g filter="url(#shadow)">

    <!-- Cartoony Bread Crust -->
    <path d="M 256 20 C 460 20, 492 60, 492 128 C 492 196, 460 236, 256 236 C 52 236, 20 196, 20 128 C 20 60, 52 20, 256 20 Z" fill="url(#crust-white)" stroke="#A85D10" stroke-width="12" stroke-linejoin="round"/>
          
    <!-- Inner bread crumb -->
    <path d="M 256 32 C 436 32, 460 68, 460 128 C 460 188, 436 224, 256 224 C 76 224, 52 188, 52 128 C 52 68, 76 32, 256 32 Z" fill="url(#inner-white)"/>
          
    <!-- Inner soft shadow / rim -->
    <path d="M 256 32 C 436 32, 460 68, 460 128 C 460 188, 436 224, 256 224 C 76 224, 52 188, 52 128 C 52 68, 76 32, 256 32 Z" fill="none" stroke="#EED9C3" stroke-width="12" opacity="0.85" filter="blur(3px)"/>

    <g>
      <circle cx="459.08520505147476" cy="125.8823339514374" r="1.5344119467222985" fill="#E3CBA8" opacity="0.5"/>
<circle cx="293.19129581590903" cy="137.66451821759182" r="3.3622572093775864" fill="#E3CBA8" opacity="0.5"/>
<circle cx="110.95129045437396" cy="126.50989591549116" r="1.1769442251928344" fill="#E3CBA8" opacity="0.5"/>
<circle cx="285.1818810067808" cy="145.8843063467253" r="1.5564726275453276" fill="#E3CBA8" opacity="0.5"/>
<circle cx="165.13105778779286" cy="198.88795662292972" r="3.7952120347829332" fill="#E3CBA8" opacity="0.5"/>
<circle cx="301.39138703168777" cy="56.65774587218195" r="1.9851377521054066" fill="#E3CBA8" opacity="0.5"/>
<circle cx="161.58170708696522" cy="181.87781863542546" r="1.5183787967938873" fill="#E3CBA8" opacity="0.5"/>
<circle cx="147.8667164453837" cy="105.46863831071143" r="2.104021420675576" fill="#E3CBA8" opacity="0.5"/>
<circle cx="117.32604807390597" cy="65.4684250435635" r="2.347569760746355" fill="#E3CBA8" opacity="0.5"/>
<circle cx="255.08035728752554" cy="205.85650997701404" r="3.74903399006333" fill="#E3CBA8" opacity="0.5"/>
<circle cx="199.8224194763764" cy="43.41606468046096" r="2.087109660459658" fill="#E3CBA8" opacity="0.5"/>
<circle cx="348.8668944846456" cy="67.78666671129773" r="3.388702010172862" fill="#E3CBA8" opacity="0.5"/>
<circle cx="444.9145351603664" cy="42.73524994357921" r="2.1058268576930956" fill="#E3CBA8" opacity="0.5"/>
<circle cx="61.66203347408191" cy="170.24848393508353" r="1.3311919506339611" fill="#E3CBA8" opacity="0.5"/>
<circle cx="306.9158558167437" cy="165.9701389506351" r="3.9288164639533534" fill="#E3CBA8" opacity="0.5"/>
<circle cx="271.9225536215657" cy="71.32258497017645" r="1.747755487440128" fill="#E3CBA8" opacity="0.5"/>
<circle cx="202.42317045204143" cy="74.75338093930698" r="1.2579389458321288" fill="#E3CBA8" opacity="0.5"/>
<circle cx="481.1463080890833" cy="97.46958569291937" r="3.70220708879648" fill="#E3CBA8" opacity="0.5"/>
<circle cx="370.34299525603365" cy="156.58646422452566" r="2.08203342644655" fill="#E3CBA8" opacity="0.5"/>
<circle cx="395.5384272141004" cy="165.89501772014714" r="3.1968320401392325" fill="#E3CBA8" opacity="0.5"/>
<circle cx="228.1165559249623" cy="96.30790772004008" r="2.624688935943005" fill="#E3CBA8" opacity="0.5"/>
<circle cx="338.0469612967317" cy="173.46122469904202" r="2.2482906474898985" fill="#E3CBA8" opacity="0.5"/>
<circle cx="46.7582131238391" cy="222.7777875268293" r="2.60203555956397" fill="#E3CBA8" opacity="0.5"/>
<circle cx="471.4826275476454" cy="87.19303640416814" r="3.4843132111264286" fill="#E3CBA8" opacity="0.5"/>
<circle cx="356.3135996745567" cy="150.09628630045347" r="2.0498607118941643" fill="#E3CBA8" opacity="0.5"/>
<circle cx="182.90636369821797" cy="133.91638916935608" r="2.0487105594881045" fill="#E3CBA8" opacity="0.5"/>
<circle cx="245.42571763894418" cy="199.4282703717352" r="1.2412918595066227" fill="#E3CBA8" opacity="0.5"/>
<circle cx="136.84078857980768" cy="62.42152938243025" r="3.6384010385533108" fill="#E3CBA8" opacity="0.5"/>
<circle cx="214.4422936226982" cy="130.4554116421299" r="1.1690892598972662" fill="#E3CBA8" opacity="0.5"/>
<circle cx="349.4035571543666" cy="103.04760571584711" r="3.0847319745795674" fill="#E3CBA8" opacity="0.5"/>
<circle cx="248.29873017136754" cy="179.53816310636498" r="1.339651531400091" fill="#E3CBA8" opacity="0.5"/>
<circle cx="129.88797034514107" cy="158.51440315293735" r="2.703115307271689" fill="#E3CBA8" opacity="0.5"/>
<circle cx="131.34406072293132" cy="149.38247385504124" r="2.2331819243673685" fill="#E3CBA8" opacity="0.5"/>
<circle cx="361.00879451098854" cy="65.0888133408611" r="3.1662835962831197" fill="#E3CBA8" opacity="0.5"/>
<circle cx="100.40817465679534" cy="110.89404407521945" r="1.67247292026096" fill="#E3CBA8" opacity="0.5"/>
<circle cx="213.97042648858974" cy="173.48389127148738" r="1.3356111770580295" fill="#E3CBA8" opacity="0.5"/>
<circle cx="194.61816872166193" cy="54.79523650165892" r="1.0544087358922654" fill="#E3CBA8" opacity="0.5"/>
<circle cx="46.239693095754916" cy="50.83995676291542" r="2.5367169721850646" fill="#E3CBA8" opacity="0.5"/>
<circle cx="321.77480163335247" cy="74.24302618042805" r="1.8124960431388624" fill="#E3CBA8" opacity="0.5"/>
<circle cx="186.80868985801322" cy="211.72091884104302" r="1.91895074850725" fill="#E3CBA8" opacity="0.5"/>
<circle cx="342.3276417690059" cy="199.14497954958966" r="3.792691024856241" fill="#E3CBA8" opacity="0.5"/>
<circle cx="366.6267279057704" cy="171.25804376032212" r="3.236078668367674" fill="#E3CBA8" opacity="0.5"/>
<circle cx="79.88038319434769" cy="225.45433046464535" r="2.442893769597885" fill="#E3CBA8" opacity="0.5"/>
<circle cx="304.26004548217975" cy="123.05610053539398" r="1.4666567145791989" fill="#E3CBA8" opacity="0.5"/>
<circle cx="227.61579035539359" cy="136.43515634481903" r="3.670379328783947" fill="#E3CBA8" opacity="0.5"/>
<circle cx="319.2956086179342" cy="212.90386624668022" r="2.7343884098689877" fill="#E3CBA8" opacity="0.5"/>
<circle cx="401.6114445931016" cy="178.11151848887317" r="2.303240545118088" fill="#E3CBA8" opacity="0.5"/>
<circle cx="266.8546631122594" cy="133.6870898490634" r="3.2632886853137655" fill="#E3CBA8" opacity="0.5"/>
<circle cx="411.5550194650759" cy="111.6959803576682" r="2.6157323867402242" fill="#E3CBA8" opacity="0.5"/>
<circle cx="34.02658767200313" cy="81.51238845359373" r="1.8664545804022712" fill="#E3CBA8" opacity="0.5"/>
<circle cx="414.4610285835469" cy="62.01815590337289" r="1.0120604091235466" fill="#E3CBA8" opacity="0.5"/>
<circle cx="89.39761926563163" cy="135.21995155399892" r="3.8257826339815" fill="#E3CBA8" opacity="0.5"/>
<circle cx="107.34213922533313" cy="162.1534397264236" r="3.9903871005110045" fill="#E3CBA8" opacity="0.5"/>
<circle cx="284.48033493978954" cy="213.12189043394247" r="2.8892033077212598" fill="#E3CBA8" opacity="0.5"/>
<circle cx="109.3638637969165" cy="105.24595616039973" r="3.401625227424828" fill="#E3CBA8" opacity="0.5"/>
<circle cx="310.87844092533726" cy="169.1114290488943" r="3.639671878432074" fill="#E3CBA8" opacity="0.5"/>
<circle cx="52.359987536724645" cy="149.6589692234426" r="2.528098768529482" fill="#E3CBA8" opacity="0.5"/>
<circle cx="281.9383209317547" cy="186.8922998044413" r="1.0504988182898338" fill="#E3CBA8" opacity="0.5"/>
<circle cx="460.72073015328107" cy="225.86444510981903" r="1.5686954551647814" fill="#E3CBA8" opacity="0.5"/>
<circle cx="387.83991978298866" cy="100.95917070072613" r="3.9862538358520676" fill="#E3CBA8" opacity="0.5"/>
<circle cx="326.0049377405106" cy="172.78973107038587" r="2.231296406542955" fill="#E3CBA8" opacity="0.5"/>
<circle cx="434.44524978473186" cy="86.2735220311607" r="3.068312530716309" fill="#E3CBA8" opacity="0.5"/>
<circle cx="391.7999902781116" cy="52.78380947869822" r="1.8990793859233297" fill="#E3CBA8" opacity="0.5"/>
<circle cx="468.56755421855536" cy="188.33408208464877" r="3.4651282884557646" fill="#E3CBA8" opacity="0.5"/>
<circle cx="369.23526255129383" cy="53.219760782658334" r="3.7359342988260837" fill="#E3CBA8" opacity="0.5"/>
<circle cx="394.230530644901" cy="51.79361873638189" r="1.7434264385430125" fill="#E3CBA8" opacity="0.5"/>
<circle cx="275.5445129273526" cy="89.0830927936904" r="3.207168836733583" fill="#E3CBA8" opacity="0.5"/>
<circle cx="454.08525180079965" cy="40.90411925679284" r="1.6721199097654569" fill="#E3CBA8" opacity="0.5"/>
<circle cx="278.7347245535873" cy="187.30758453943864" r="2.471439491537279" fill="#E3CBA8" opacity="0.5"/>
<circle cx="104.88152460294918" cy="167.9759907740133" r="1.767090306211325" fill="#E3CBA8" opacity="0.5"/>
<circle cx="397.50091649684714" cy="149.63886803999128" r="2.591143347909343" fill="#E3CBA8" opacity="0.5"/>
<circle cx="288.2917964378478" cy="157.4327983830725" r="2.1214575925235066" fill="#E3CBA8" opacity="0.5"/>
<circle cx="383.34469485811985" cy="53.2139609896424" r="1.1438518212661184" fill="#E3CBA8" opacity="0.5"/>
<circle cx="101.71847621681415" cy="69.02905616294659" r="3.15604387700154" fill="#E3CBA8" opacity="0.5"/>
<circle cx="329.33696973808105" cy="139.2311641657038" r="3.0815004729501956" fill="#E3CBA8" opacity="0.5"/>
<circle cx="412.4961193071946" cy="207.25566647200537" r="1.7016377944477799" fill="#E3CBA8" opacity="0.5"/>
<circle cx="472.065600358116" cy="71.2302668835394" r="1.8434608870154792" fill="#E3CBA8" opacity="0.5"/>
<circle cx="75.70104406515257" cy="84.13304814115057" r="3.9948958412034963" fill="#E3CBA8" opacity="0.5"/>
<circle cx="167.20625321300074" cy="50.53414214059369" r="1.4947357996557344" fill="#E3CBA8" opacity="0.5"/>
<circle cx="351.5643331420562" cy="50.90801718297472" r="1.3133107975981106" fill="#E3CBA8" opacity="0.5"/>
<circle cx="296.8166863804137" cy="213.2712633787049" r="3.317796794232439" fill="#E3CBA8" opacity="0.5"/>
<circle cx="191.74156760011502" cy="222.35227255820658" r="1.8778518992712034" fill="#E3CBA8" opacity="0.5"/>
<circle cx="353.978126627789" cy="222.6737497185424" r="1.8653356828533194" fill="#E3CBA8" opacity="0.5"/>
<circle cx="108.7829688010528" cy="165.0989851396712" r="2.454361037372498" fill="#E3CBA8" opacity="0.5"/>
<circle cx="289.5703039630545" cy="185.59449550043297" r="1.0921142465623144" fill="#E3CBA8" opacity="0.5"/>
<circle cx="228.23755310710553" cy="117.69071094636926" r="2.3158277952767534" fill="#E3CBA8" opacity="0.5"/>
<circle cx="297.7142424065706" cy="50.37161350687346" r="2.6577403714719914" fill="#E3CBA8" opacity="0.5"/>
<circle cx="189.83137898454316" cy="222.19616400164784" r="1.8391843249942628" fill="#E3CBA8" opacity="0.5"/>
<circle cx="398.31863813812663" cy="168.30084545104344" r="2.827856293774121" fill="#E3CBA8" opacity="0.5"/>
<circle cx="331.23903199698293" cy="130.99369919028084" r="2.7179207323341883" fill="#E3CBA8" opacity="0.5"/>
<circle cx="261.6155552087256" cy="103.3257939338208" r="3.2944580978516513" fill="#E3CBA8" opacity="0.5"/>
<circle cx="155.93416938987832" cy="53.502508037710555" r="2.483593676235206" fill="#E3CBA8" opacity="0.5"/>
<circle cx="70.16920447894242" cy="203.47894438845742" r="3.657949582981008" fill="#E3CBA8" opacity="0.5"/>
<circle cx="426.37960997946607" cy="34.60547727234405" r="3.275229879218223" fill="#E3CBA8" opacity="0.5"/>
<circle cx="152.1895494340081" cy="60.99436473577619" r="2.662749189283564" fill="#E3CBA8" opacity="0.5"/>
<circle cx="466.93743478100544" cy="204.07842339361991" r="1.4495059975672973" fill="#E3CBA8" opacity="0.5"/>
<circle cx="149.45988088469426" cy="174.6880456388811" r="2.2851567656836558" fill="#E3CBA8" opacity="0.5"/>
<circle cx="62.37438346065274" cy="198.86779936616838" r="3.0809491433176146" fill="#E3CBA8" opacity="0.5"/>
<circle cx="340.7455284378878" cy="121.01043053985808" r="3.3435132235062848" fill="#E3CBA8" opacity="0.5"/>
<circle cx="53.54446969952588" cy="56.78651143976647" r="2.920989439036825" fill="#E3CBA8" opacity="0.5"/>
<circle cx="42.52790544548973" cy="145.3354982398788" r="3.471552430904045" fill="#E3CBA8" opacity="0.5"/>
<circle cx="430.4785824960275" cy="137.42272544800028" r="3.824489591241837" fill="#E3CBA8" opacity="0.5"/>
<circle cx="52.32312656311635" cy="150.98201809378412" r="2.7469594699636386" fill="#E3CBA8" opacity="0.5"/>
<circle cx="182.23322374338133" cy="124.11089560559573" r="3.8977990759915007" fill="#E3CBA8" opacity="0.5"/>
<circle cx="289.4682481693117" cy="53.859888779197576" r="3.4835749364571487" fill="#E3CBA8" opacity="0.5"/>
<circle cx="246.66010362887513" cy="200.1990999619378" r="1.970092368239488" fill="#E3CBA8" opacity="0.5"/>
<circle cx="342.0372830151108" cy="224.9689628328324" r="3.3647520563471236" fill="#E3CBA8" opacity="0.5"/>
<circle cx="333.26996396788036" cy="204.60462266898165" r="1.6730352863650446" fill="#E3CBA8" opacity="0.5"/>
<circle cx="96.30573249133565" cy="198.60115009454594" r="2.3374610541643577" fill="#E3CBA8" opacity="0.5"/>
<circle cx="323.4273300176033" cy="186.44798748188944" r="1.7771738608909113" fill="#E3CBA8" opacity="0.5"/>
<circle cx="207.29261885189626" cy="178.75054192483321" r="3.068135701936571" fill="#E3CBA8" opacity="0.5"/>
<circle cx="297.92571783926303" cy="96.62576023136477" r="2.7612718117280908" fill="#E3CBA8" opacity="0.5"/>
<circle cx="99.79110706936102" cy="128.47893498807417" r="2.3599396628183493" fill="#E3CBA8" opacity="0.5"/>
<circle cx="96.59779345364076" cy="143.75566841085538" r="3.2526305093698578" fill="#E3CBA8" opacity="0.5"/>
<circle cx="294.32234494120985" cy="81.013310677893" r="3.57644690672532" fill="#E3CBA8" opacity="0.5"/>
<circle cx="114.1737860166269" cy="175.75924060204784" r="2.322543854033726" fill="#E3CBA8" opacity="0.5"/>
<circle cx="472.56253937290785" cy="166.9428038906161" r="1.5230253448090822" fill="#E3CBA8" opacity="0.5"/>
<circle cx="209.16260742149908" cy="50.47555590156762" r="3.3232785431359684" fill="#E3CBA8" opacity="0.5"/>
<circle cx="241.1739131911601" cy="111.88335157357895" r="2.73937829342466" fill="#E3CBA8" opacity="0.5"/>
<circle cx="211.31692412040394" cy="209.94781212777684" r="1.3320095492104005" fill="#E3CBA8" opacity="0.5"/>
<circle cx="148.30973586733566" cy="68.98942295615919" r="2.8674306741696087" fill="#E3CBA8" opacity="0.5"/>
<circle cx="283.6317493137452" cy="140.84831229632942" r="3.7123752605067843" fill="#E3CBA8" opacity="0.5"/>
<circle cx="44.44792359948106" cy="42.30045571897224" r="1.1715467803357007" fill="#E3CBA8" opacity="0.5"/>
<circle cx="218.61612728437925" cy="160.8642312891377" r="3.73968060947528" fill="#E3CBA8" opacity="0.5"/>
<circle cx="129.58109080984661" cy="131.75540232718052" r="1.1181362761805729" fill="#E3CBA8" opacity="0.5"/>
<circle cx="61.62086786112875" cy="67.09947930323045" r="2.901229011232651" fill="#E3CBA8" opacity="0.5"/>
<circle cx="404.37659460720823" cy="92.39997129471088" r="2.744074613228426" fill="#E3CBA8" opacity="0.5"/>
<circle cx="441.6036136017589" cy="74.07451269863301" r="3.8433792178416386" fill="#E3CBA8" opacity="0.5"/>
<circle cx="339.08098093519175" cy="87.48843606214581" r="1.7750107547872802" fill="#E3CBA8" opacity="0.5"/>
<circle cx="352.63119413531314" cy="202.59162892974155" r="2.97511155797588" fill="#E3CBA8" opacity="0.5"/>
<circle cx="202.6292534327884" cy="211.39104970228507" r="3.651979252539665" fill="#E3CBA8" opacity="0.5"/>
<circle cx="122.9524018949209" cy="196.9875038248734" r="2.4413088467448083" fill="#E3CBA8" opacity="0.5"/>
<circle cx="471.8018857351108" cy="200.4114372428006" r="2.1504654715037947" fill="#E3CBA8" opacity="0.5"/>
<circle cx="452.76986426651314" cy="45.83050089100739" r="2.2907663181703173" fill="#E3CBA8" opacity="0.5"/>
<circle cx="154.69059155797854" cy="43.48376399174796" r="3.704315264994215" fill="#E3CBA8" opacity="0.5"/>
<circle cx="460.38106598023273" cy="123.38121629124753" r="2.369683086088921" fill="#E3CBA8" opacity="0.5"/>
<circle cx="256.8720729915892" cy="138.89809142178655" r="1.7167444637598153" fill="#E3CBA8" opacity="0.5"/>
<circle cx="264.8423095352174" cy="140.27725217621935" r="3.3935875369061708" fill="#E3CBA8" opacity="0.5"/>
<circle cx="420.10123707301995" cy="62.27500727273473" r="1.017037953644029" fill="#E3CBA8" opacity="0.5"/>
<circle cx="97.26917148324884" cy="168.67969728305616" r="3.77766006346772" fill="#E3CBA8" opacity="0.5"/>
<circle cx="78.19684415529562" cy="161.6418693080025" r="2.348003981257793" fill="#E3CBA8" opacity="0.5"/>
<circle cx="401.0998652051168" cy="167.49394311645935" r="2.5539154976413054" fill="#E3CBA8" opacity="0.5"/>
<circle cx="377.2171755988977" cy="60.34166402601308" r="3.1671153187101244" fill="#E3CBA8" opacity="0.5"/>
<circle cx="60.17638010572185" cy="223.76163653906713" r="2.416881494373616" fill="#E3CBA8" opacity="0.5"/>
<circle cx="142.6755802960659" cy="221.2514131528903" r="3.513075766359525" fill="#E3CBA8" opacity="0.5"/>
<circle cx="140.89295001241766" cy="178.2098875713456" r="3.928856789262428" fill="#E3CBA8" opacity="0.5"/>
<circle cx="130.43860413372698" cy="109.91208145547346" r="2.5904500799275607" fill="#E3CBA8" opacity="0.5"/>
<circle cx="173.4115186332166" cy="135.27323588099273" r="1.155432172915297" fill="#E3CBA8" opacity="0.5"/>
<circle cx="93.87825229901159" cy="213.89891602347495" r="3.3222560439140505" fill="#E3CBA8" opacity="0.5"/>
<circle cx="173.91958155405388" cy="53.93321493873056" r="1.6054479408535756" fill="#E3CBA8" opacity="0.5"/>

    </g>
    
    <path d="M 64 64 C 180 44, 320 40, 450 48" fill="none" stroke="#FFFFFF" stroke-width="8" stroke-linecap="round" opacity="0.35"/>
  
  </g>
</svg>