<svg width="128" height="128" viewBox="0 0 128 128" xmlns="http://www.w3.org/2000/svg">
  <defs>
    <filter id="shadow" x="-20%" y="-20%" width="140%" height="140%">
      <feDropShadow dx="2" dy="4" stdDeviation="3" flood-color="#000" flood-opacity="0.25"/>
    </filter>

    <radialGradient id="crust-sourdough" cx="50%" cy="50%" r="50%">
      <stop offset="60%" stop-color="#D4B88E"/>
      <stop offset="100%" stop-color="#A88D68"/>
    </radialGradient>
    <radialGradient id="inner-sourdough" cx="40%" cy="40%" r="60%">
      <stop offset="0%" stop-color="#FFFBEA"/>
      <stop offset="100%" stop-color="#EBE2C5"/>
    </radialGradient>
  
  </defs>
  <g filter="url(#shadow)">

    <!-- Cartoony Bread Crust -->
    <path d="M 64 16 C 96 16, 120 36, 120 62 C 120 88, 96 112, 64 112 C 32 112, 8 88, 8 62 C 8 36, 32 16, 64 16 Z" 
          fill="url(#crust-sourdough)" stroke="#7A6242" stroke-width="4" stroke-linejoin="round"/>
          
    <!-- Inner bread -->
    <path d="M 64 24 C 88 24, 108 40, 108 62 C 108 84, 88 100, 64 100 C 40 100, 20 84, 20 62 C 20 40, 40 24, 64 24 Z" 
          fill="url(#inner-sourdough)"/>
          
    <!-- Inner shadow / Rim light on inner bread -->
    <path d="M 64 24 C 88 24, 108 40, 108 62 C 108 84, 88 100, 64 100 C 40 100, 20 84, 20 62 C 20 40, 40 24, 64 24 Z" 
          fill="none" stroke="#D4C69F" stroke-width="4" opacity="0.8"/>

    <!-- Flour / texture specks -->
    <g>
      <circle cx="50" cy="50" r="2.5" fill="#C2B084" opacity="0.7"/>
<circle cx="80" cy="65" r="3" fill="#C2B084" opacity="0.7"/>
<circle cx="65" cy="80" r="2" fill="#C2B084" opacity="0.7"/>
<circle cx="45" cy="70" r="1.5" fill="#C2B084" opacity="0.7"/>
<circle cx="85" cy="45" r="2" fill="#C2B084" opacity="0.7"/>
<ellipse cx="35" cy="55" rx="4" ry="3" fill="#C8B898" opacity="0.8"/>
<ellipse cx="70" cy="35" rx="5" ry="3.75" fill="#C8B898" opacity="0.8"/>
<ellipse cx="40" cy="80" rx="4" ry="3" fill="#C8B898" opacity="0.8"/>
<circle cx="90" cy="80" r="1.5" fill="#C2B084" opacity="0.7"/>

    </g>
    
    <!-- Cartoon Highlight -->
    <path d="M 32 36 C 44 28, 64 26, 80 30" fill="none" stroke="#FFFFFF" stroke-width="4" stroke-linecap="round" opacity="0.4"/>
  
    <!-- Toasted marks -->
    <path d="M 40 40 L 90 40 M 45 60 L 85 60 M 35 80 L 95 80" fill="none" stroke="#6b3e1b" stroke-width="12" stroke-linecap="round" opacity="0.3" filter="blur(2px)"/>
    <path d="M 40 40 L 90 40 M 45 60 L 85 60 M 35 80 L 95 80" fill="none" stroke="#4a260d" stroke-width="6" stroke-linecap="round" opacity="0.4"/>
    <radialGradient id="toast-grad" cx="50%" cy="50%" r="50%">
      <stop offset="40%" stop-color="#8a4d1f" stop-opacity="0"/>
      <stop offset="100%" stop-color="#5c2f0d" stop-opacity="0.4"/>
    </radialGradient>
    <path d="M 64 28 C 84 28, 100 40, 102 60 C 104 80, 86 92, 64 94 C 42 96, 26 80, 28 60 C 30 40, 44 28, 64 28 Z" fill="url(#toast-grad)"/>

  </g>
</svg>