<svg width="512" height="256" viewBox="0 0 512 256" xmlns="http://www.w3.org/2000/svg">
  <defs>
    <filter id="shadow" x="-30%" y="-30%" width="160%" height="160%">
      <feDropShadow dx="0" dy="8" stdDeviation="6" flood-color="#000" flood-opacity="0.35"/>
    </filter>
    <filter id="inner-shadow">
      <feOffset dx="0" dy="0"/>
      <feGaussianBlur stdDeviation="4" result="offset-blur"/>
      <feComposite operator="out" in="SourceGraphic" in2="offset-blur" result="inverse"/>
      <feFlood flood-color="black" flood-opacity="0.4" result="color"/>
      <feComposite operator="in" in="color" in2="inverse" result="shadow"/>
      <feComposite operator="over" in="shadow" in2="SourceGraphic"/>
    </filter>

    <radialGradient id="crust-wheat" cx="50%" cy="50%" r="50%">
      <stop offset="50%" stop-color="#B5825B"/>
      <stop offset="100%" stop-color="#8F5E36"/>
    </radialGradient>
    <radialGradient id="inner-wheat" cx="45%" cy="45%" r="65%">
      <stop offset="0%" stop-color="#E8D0AE"/>
      <stop offset="100%" stop-color="#D1A67B"/>
    </radialGradient>
  
  </defs>
  <g filter="url(#shadow)">

    <!-- Cartoony Bread Crust -->
    <path d="M 256 20 C 460 20, 492 60, 492 128 C 492 196, 460 236, 256 236 C 52 236, 20 196, 20 128 C 20 60, 52 20, 256 20 Z" fill="url(#crust-wheat)" stroke="#5E381C" stroke-width="12" stroke-linejoin="round"/>
          
    <!-- Inner bread crumb -->
    <path d="M 256 32 C 436 32, 460 68, 460 128 C 460 188, 436 224, 256 224 C 76 224, 52 188, 52 128 C 52 68, 76 32, 256 32 Z" fill="url(#inner-wheat)"/>
          
    <!-- Inner soft shadow / rim -->
    <path d="M 256 32 C 436 32, 460 68, 460 128 C 460 188, 436 224, 256 224 C 76 224, 52 188, 52 128 C 52 68, 76 32, 256 32 Z" fill="none" stroke="#B88B5E" stroke-width="12" opacity="0.85" filter="blur(3px)"/>

    <g>
      <circle cx="134.59068822781657" cy="159.29321637317616" r="2.781675449467952" fill="#70421A" opacity="0.85"/>
<circle cx="451.13112750544366" cy="168.3506652841092" r="2.3628165858288517" fill="#70421A" opacity="0.85"/>
<circle cx="341.94005020611326" cy="197.86816502409388" r="1.6490748691742363" fill="#70421A" opacity="0.85"/>
<circle cx="185.42839621749596" cy="79.10793159437856" r="3.8276418989761387" fill="#70421A" opacity="0.85"/>
<circle cx="168.74678066751596" cy="161.51627877883678" r="1.6344084324315102" fill="#70421A" opacity="0.85"/>
<circle cx="89.84863292288446" cy="103.30474447793388" r="1.4820291735403424" fill="#70421A" opacity="0.85"/>
<circle cx="46.21285645297044" cy="152.8794096847364" r="2.019170773409298" fill="#70421A" opacity="0.85"/>
<circle cx="68.48896990171069" cy="211.81390810136216" r="2.6217991605134356" fill="#70421A" opacity="0.85"/>
<circle cx="208.49933087252498" cy="163.1253456508533" r="3.3386604234079025" fill="#70421A" opacity="0.85"/>
<circle cx="129.64164124281982" cy="213.9294232168814" r="3.195024872218315" fill="#70421A" opacity="0.85"/>
<circle cx="341.14940270578836" cy="90.1794359906144" r="3.306940843660521" fill="#70421A" opacity="0.85"/>
<circle cx="90.50167739077973" cy="130.39445687822484" r="3.1520731523845624" fill="#70421A" opacity="0.85"/>
<circle cx="357.2031342443958" cy="190.95109483251403" r="2.68885169265567" fill="#70421A" opacity="0.85"/>
<circle cx="335.9115254698982" cy="84.94629489025343" r="1.6331940187003604" fill="#70421A" opacity="0.85"/>
<circle cx="269.3359735370326" cy="127.26641537596734" r="2.200214316567035" fill="#70421A" opacity="0.85"/>
<circle cx="363.5687497282525" cy="191.34148622044802" r="3.773888612664739" fill="#70421A" opacity="0.85"/>
<circle cx="329.0301048347964" cy="124.72051547352834" r="3.317641599923231" fill="#70421A" opacity="0.85"/>
<circle cx="275.1485024700146" cy="109.19675351264155" r="2.0461168214558736" fill="#70421A" opacity="0.85"/>
<circle cx="212.91301806492282" cy="170.0420528644081" r="2.340256452466657" fill="#70421A" opacity="0.85"/>
<circle cx="101.50858502203911" cy="98.85363860393386" r="1.8443985487602885" fill="#70421A" opacity="0.85"/>
<circle cx="127.87761890878163" cy="159.72862759176445" r="3.122908334274522" fill="#70421A" opacity="0.85"/>
<circle cx="361.1639752379995" cy="51.038532829084744" r="2.8466538601821583" fill="#70421A" opacity="0.85"/>
<circle cx="446.33564463684917" cy="32.614477527908264" r="1.3567453861583898" fill="#70421A" opacity="0.85"/>
<circle cx="457.9127306384937" cy="92.65870564824837" r="3.8265752236869734" fill="#70421A" opacity="0.85"/>
<circle cx="382.77538079346726" cy="185.73476151295202" r="2.4460554959997296" fill="#70421A" opacity="0.85"/>
<circle cx="224.9689213269485" cy="171.0667655809276" r="3.6613128775019974" fill="#70421A" opacity="0.85"/>
<circle cx="254.6621301189728" cy="116.13662012254845" r="1.8300781855334924" fill="#70421A" opacity="0.85"/>
<circle cx="394.5011035202782" cy="91.20513752830179" r="1.044195559471707" fill="#70421A" opacity="0.85"/>
<circle cx="318.60919297550123" cy="101.63656766496766" r="1.8393958996415192" fill="#70421A" opacity="0.85"/>
<circle cx="224.32844059253546" cy="73.57878083702957" r="2.65684579380881" fill="#70421A" opacity="0.85"/>
<circle cx="125.60191292667422" cy="86.51760920913699" r="1.8727536096873694" fill="#70421A" opacity="0.85"/>
<circle cx="178.06877518301673" cy="201.82956051057062" r="1.8687253749744062" fill="#70421A" opacity="0.85"/>
<circle cx="275.9777232653845" cy="49.61344709999348" r="2.5371099315121617" fill="#70421A" opacity="0.85"/>
<circle cx="65.25688952121587" cy="132.98501671040714" r="2.61388478963716" fill="#70421A" opacity="0.85"/>
<circle cx="139.20469245861375" cy="159.54862090190898" r="2.017178617456313" fill="#70421A" opacity="0.85"/>
<circle cx="387.64102654144335" cy="205.4841763485234" r="3.408749970627075" fill="#70421A" opacity="0.85"/>
<circle cx="142.039863797937" cy="99.47339465195766" r="3.8369132734405698" fill="#70421A" opacity="0.85"/>
<circle cx="190.448106514636" cy="203.68039834727594" r="1.5262362229465825" fill="#70421A" opacity="0.85"/>
<circle cx="122.36561669020264" cy="61.46026604852396" r="1.516653688507754" fill="#70421A" opacity="0.85"/>
<circle cx="289.7773926559655" cy="167.26858145844287" r="2.243600425953458" fill="#70421A" opacity="0.85"/>
<circle cx="35.84164184755739" cy="181.62451371652924" r="1.0368522529556123" fill="#70421A" opacity="0.85"/>
<circle cx="327.13204354640817" cy="197.9734781733528" r="3.4142256406831923" fill="#70421A" opacity="0.85"/>
<circle cx="153.0326490490376" cy="57.456238438722984" r="1.69904332450167" fill="#70421A" opacity="0.85"/>
<circle cx="462.63898312537435" cy="31.487213196278454" r="2.9089568096599927" fill="#70421A" opacity="0.85"/>
<circle cx="210.29426662718436" cy="203.11280658831276" r="3.629312393549089" fill="#70421A" opacity="0.85"/>
<circle cx="239.41075976188765" cy="69.65401721822757" r="1.711168611200917" fill="#70421A" opacity="0.85"/>
<circle cx="481.64600136963577" cy="69.76413070223731" r="1.4144626138867658" fill="#70421A" opacity="0.85"/>
<circle cx="327.15418265512403" cy="200.50758890703645" r="1.7041854234982614" fill="#70421A" opacity="0.85"/>
<circle cx="90.63358527661077" cy="128.5256815757229" r="3.105727399178037" fill="#70421A" opacity="0.85"/>
<circle cx="80.82439039952267" cy="138.8399660185322" r="1.9016103035274279" fill="#70421A" opacity="0.85"/>
<circle cx="446.6854810280418" cy="191.80759383719638" r="2.309900368778517" fill="#70421A" opacity="0.85"/>
<circle cx="71.95837914972334" cy="141.2949802646848" r="2.4773083484586342" fill="#70421A" opacity="0.85"/>
<circle cx="391.38082047702295" cy="195.16231287425765" r="3.262549759271827" fill="#70421A" opacity="0.85"/>
<circle cx="125.54125959852097" cy="104.77891289958163" r="2.87733870350647" fill="#70421A" opacity="0.85"/>
<circle cx="45.16045455137525" cy="207.57113325171687" r="1.7255090924348757" fill="#70421A" opacity="0.85"/>
<circle cx="385.58117172708705" cy="33.9191876096625" r="2.3201478380764056" fill="#70421A" opacity="0.85"/>
<circle cx="49.35529436420097" cy="131.9590755188166" r="1.3637953489868355" fill="#70421A" opacity="0.85"/>
<circle cx="60.473259418525" cy="139.65874350800027" r="1.866574440495062" fill="#70421A" opacity="0.85"/>
<circle cx="227.3819302041403" cy="108.17225923219928" r="1.0035578294204175" fill="#70421A" opacity="0.85"/>
<circle cx="253.9974083489489" cy="205.82120261648836" r="1.7777991674700542" fill="#70421A" opacity="0.85"/>
<circle cx="311.1089870228957" cy="31.150389802904684" r="1.019511614800095" fill="#70421A" opacity="0.85"/>
<circle cx="232.55047984012262" cy="55.57229062018949" r="3.907257604527717" fill="#70421A" opacity="0.85"/>
<circle cx="418.17240449557676" cy="101.4804834689333" r="2.9141812237739146" fill="#70421A" opacity="0.85"/>
<circle cx="303.48650959111626" cy="59.49202320120712" r="2.4672298049094112" fill="#70421A" opacity="0.85"/>
<circle cx="326.68530605631724" cy="48.93218119035323" r="1.4760236768162769" fill="#70421A" opacity="0.85"/>
<circle cx="428.65587576873804" cy="88.09239755825307" r="3.6488368646811296" fill="#70421A" opacity="0.85"/>
<circle cx="218.12845428655405" cy="74.01970130449298" r="3.4585124381724697" fill="#70421A" opacity="0.85"/>
<circle cx="314.34858577028604" cy="186.12447119548705" r="2.6882374872324557" fill="#70421A" opacity="0.85"/>
<circle cx="239.059127198644" cy="41.67320497264451" r="1.4145933973483968" fill="#70421A" opacity="0.85"/>
<circle cx="168.27672362501224" cy="126.31015429696419" r="3.4619113595340867" fill="#70421A" opacity="0.85"/>
<circle cx="288.9748265691866" cy="197.37917004353304" r="3.5344519229041174" fill="#70421A" opacity="0.85"/>
<circle cx="244.3428049993736" cy="194.28438190735446" r="3.3537681634073557" fill="#70421A" opacity="0.85"/>
<circle cx="212.34585007200076" cy="38.982966635563066" r="1.213012978185605" fill="#70421A" opacity="0.85"/>
<circle cx="404.5841105820761" cy="69.54124872300125" r="1.0705813740521584" fill="#70421A" opacity="0.85"/>
<circle cx="273.928455939622" cy="96.9485466583174" r="2.9555821117134427" fill="#70421A" opacity="0.85"/>
<circle cx="270.06557221102116" cy="32.49520689561523" r="1.9777364498077203" fill="#70421A" opacity="0.85"/>
<circle cx="422.8185669046908" cy="77.7163212988246" r="3.2706915845062308" fill="#70421A" opacity="0.85"/>
<circle cx="130.2946045305384" cy="88.24075456883531" r="1.9674863680883181" fill="#70421A" opacity="0.85"/>
<circle cx="144.78021086400736" cy="203.0702920800403" r="3.452731188076275" fill="#70421A" opacity="0.85"/>
<circle cx="411.4046185740209" cy="123.98376560025378" r="3.8511315043364425" fill="#70421A" opacity="0.85"/>
<circle cx="177.56490956801625" cy="32.51733803431785" r="3.975463009427764" fill="#70421A" opacity="0.85"/>
<circle cx="200.46340264161563" cy="34.16035296497653" r="1.1424578698252286" fill="#70421A" opacity="0.85"/>
<circle cx="30.053713310481616" cy="201.7501060942725" r="3.31941061710586" fill="#70421A" opacity="0.85"/>
<circle cx="64.99358046036163" cy="132.51840239629993" r="1.7079794231719214" fill="#70421A" opacity="0.85"/>
<circle cx="213.5550603925391" cy="76.05131572192249" r="3.4804115594337164" fill="#70421A" opacity="0.85"/>
<circle cx="329.83724623396364" cy="211.7680799177487" r="2.868424052511953" fill="#70421A" opacity="0.85"/>
<circle cx="230.8702916949432" cy="53.657435711641654" r="3.5630341016803313" fill="#70421A" opacity="0.85"/>
<circle cx="226.23207541852864" cy="108.91289722502836" r="2.8351356616674463" fill="#70421A" opacity="0.85"/>
<circle cx="41.969350629990586" cy="53.87744660951092" r="1.776457936189514" fill="#70421A" opacity="0.85"/>
<circle cx="393.8313711704789" cy="88.51004435025773" r="2.1041795049748666" fill="#70421A" opacity="0.85"/>
<circle cx="378.70833010502673" cy="179.68436503438195" r="2.265915987494851" fill="#70421A" opacity="0.85"/>
<circle cx="306.2321035610944" cy="73.30551062104456" r="3.034392922670175" fill="#70421A" opacity="0.85"/>
<circle cx="93.80083865707364" cy="79.80092388631873" r="1.8941349741972924" fill="#70421A" opacity="0.85"/>
<circle cx="161.7871973274047" cy="44.691217700023614" r="3.4764332868187044" fill="#70421A" opacity="0.85"/>
<circle cx="444.3706186363503" cy="170.80927282291185" r="3.995834482992235" fill="#70421A" opacity="0.85"/>
<circle cx="181.60912719966572" cy="168.20847141300447" r="1.1468313007366633" fill="#70421A" opacity="0.85"/>
<circle cx="268.05025459808695" cy="135.58514245674857" r="1.2572479866218207" fill="#70421A" opacity="0.85"/>
<circle cx="85.08823662622603" cy="135.66202483492276" r="1.4499316361018966" fill="#70421A" opacity="0.85"/>
<circle cx="148.36203929994988" cy="134.6674798900204" r="3.6863281807168446" fill="#70421A" opacity="0.85"/>
<circle cx="460.8526311982738" cy="32.66449657556232" r="1.7594326639155735" fill="#70421A" opacity="0.85"/>
<circle cx="211.09836202301491" cy="178.59794769733443" r="3.860013476221987" fill="#70421A" opacity="0.85"/>
<circle cx="387.3183768413876" cy="33.64182822975064" r="3.6166405989551027" fill="#70421A" opacity="0.85"/>
<circle cx="229.33413397759975" cy="84.6469189936177" r="2.7196702705821063" fill="#70421A" opacity="0.85"/>
<circle cx="290.61409064947435" cy="73.87436649322564" r="2.008137115340209" fill="#70421A" opacity="0.85"/>
<circle cx="34.43323716985128" cy="222.19064487364275" r="1.6018242153648226" fill="#70421A" opacity="0.85"/>
<circle cx="275.9208316907231" cy="189.17805790387584" r="2.0087223638519256" fill="#70421A" opacity="0.85"/>
<circle cx="180.54172945852616" cy="133.2771821945872" r="1.5061318882352555" fill="#70421A" opacity="0.85"/>
<circle cx="426.6823253168835" cy="198.20163523674884" r="2.818777602105376" fill="#70421A" opacity="0.85"/>
<circle cx="267.9972879038945" cy="44.97276714503178" r="3.0953666358769896" fill="#70421A" opacity="0.85"/>
<circle cx="128.33508939674857" cy="41.17217969438728" r="3.180933861520149" fill="#70421A" opacity="0.85"/>
<circle cx="431.45569757541796" cy="45.63577753973434" r="1.5756847344337848" fill="#70421A" opacity="0.85"/>
<circle cx="72.7792677513606" cy="43.91464736285979" r="3.166434798001432" fill="#70421A" opacity="0.85"/>
<circle cx="460.5513540852956" cy="221.34150306815957" r="2.3645871153807114" fill="#70421A" opacity="0.85"/>
<circle cx="199.3050098244302" cy="36.39029447078655" r="2.1923941858305733" fill="#70421A" opacity="0.85"/>
<circle cx="468.6307452241035" cy="168.21876228374165" r="2.494139053630903" fill="#70421A" opacity="0.85"/>
<circle cx="104.57016853523189" cy="182.4658912145248" r="3.282375013022281" fill="#70421A" opacity="0.85"/>
<circle cx="337.14511228163303" cy="183.30601580132367" r="3.951634593958553" fill="#70421A" opacity="0.85"/>
<circle cx="453.25421334868054" cy="114.41222826320983" r="1.7007454524118968" fill="#70421A" opacity="0.85"/>
<circle cx="307.2287860389162" cy="184.55669238018936" r="2.2334597559883744" fill="#70421A" opacity="0.85"/>
<circle cx="349.99015188202526" cy="73.0602148219307" r="3.260572149627558" fill="#70421A" opacity="0.85"/>
<circle cx="36.51054052503435" cy="106.8457498622798" r="2.927216507933332" fill="#70421A" opacity="0.85"/>
<circle cx="352.5555951498616" cy="32.36276367919475" r="3.497912865012275" fill="#70421A" opacity="0.85"/>
<circle cx="393.2681810089368" cy="46.557474126895485" r="1.3392355332721593" fill="#70421A" opacity="0.85"/>
<circle cx="292.42345400445697" cy="180.44685446187097" r="1.318916212826403" fill="#70421A" opacity="0.85"/>
<circle cx="181.70861518835596" cy="148.0463473239294" r="1.5343907996996444" fill="#70421A" opacity="0.85"/>
<circle cx="283.2967895450945" cy="84.80536652368005" r="1.4891038367300427" fill="#70421A" opacity="0.85"/>
<circle cx="430.30104040794555" cy="64.94864940498118" r="2.9704001649167733" fill="#70421A" opacity="0.85"/>
<circle cx="454.9904804207487" cy="115.59974043228941" r="2.3409805960040027" fill="#70421A" opacity="0.85"/>
<circle cx="63.666010503166916" cy="47.82201478563398" r="1.2129771885990757" fill="#70421A" opacity="0.85"/>
<circle cx="346.4653865928516" cy="175.00687677569613" r="3.907113442845313" fill="#70421A" opacity="0.85"/>
<circle cx="34.98542742216183" cy="155.79106642385773" r="1.8956925710552726" fill="#70421A" opacity="0.85"/>
<circle cx="74.92381828534974" cy="175.3169021371066" r="2.38697731993984" fill="#70421A" opacity="0.85"/>
<circle cx="330.8210736689845" cy="52.64429047601557" r="3.4500482710643467" fill="#70421A" opacity="0.85"/>
<circle cx="94.31835919316511" cy="186.94533552373204" r="2.5211298890771023" fill="#70421A" opacity="0.85"/>
<circle cx="168.62591314927357" cy="72.10332044877065" r="3.3862847313655444" fill="#70421A" opacity="0.85"/>
<circle cx="232.13159126887243" cy="204.74577605186806" r="1.952307449450654" fill="#70421A" opacity="0.85"/>
<circle cx="198.99462290264051" cy="161.1327856717834" r="1.3998485367868863" fill="#70421A" opacity="0.85"/>
<circle cx="83.32390192246227" cy="116.40827983039566" r="1.2800421605023566" fill="#70421A" opacity="0.85"/>
<circle cx="446.73998205616135" cy="121.08220056269775" r="2.594641909532498" fill="#70421A" opacity="0.85"/>
<circle cx="171.0711318448252" cy="215.97360454190746" r="3.926192277962918" fill="#70421A" opacity="0.85"/>
<circle cx="30.45145867631323" cy="101.64259817997637" r="3.409660749618067" fill="#70421A" opacity="0.85"/>
<circle cx="262.1783212356951" cy="206.86166768736902" r="1.000874118193329" fill="#70421A" opacity="0.85"/>
<circle cx="466.77608666860675" cy="190.06567586568607" r="3.0243358994684506" fill="#70421A" opacity="0.85"/>
<circle cx="364.9672518732661" cy="54.49809944851147" r="1.3275112052805325" fill="#70421A" opacity="0.85"/>
<circle cx="403.3273121649045" cy="114.04628758086271" r="3.0513790717865756" fill="#70421A" opacity="0.85"/>
<circle cx="304.69218081006443" cy="88.91775732002644" r="2.585539453299205" fill="#70421A" opacity="0.85"/>
<circle cx="449.73042653639345" cy="152.52930230965416" r="1.4601846119930069" fill="#70421A" opacity="0.85"/>
<circle cx="328.5491315908844" cy="189.75472495033745" r="2.0041282014063384" fill="#70421A" opacity="0.85"/>
<circle cx="313.19306109424855" cy="49.44880265062791" r="3.620637739936434" fill="#70421A" opacity="0.85"/>
<circle cx="406.27289903913356" cy="166.95985170813594" r="2.6504972947534515" fill="#70421A" opacity="0.85"/>

    </g>
    
    <path d="M 64 64 C 180 44, 320 40, 450 48" fill="none" stroke="#FFFFFF" stroke-width="8" stroke-linecap="round" opacity="0.35"/>
  
    <!-- Grill marks -->
    <path d="M 20 70 L 492 70 M 20 128 L 492 128 M 20 186 L 492 186" fill="none" stroke="#5c2f0d" stroke-width="20" stroke-linecap="round" opacity="0.25" filter="blur(3px)"/>
    <path d="M 20 70 L 492 70 M 20 128 L 492 128 M 20 186 L 492 186" fill="none" stroke="#4a260d" stroke-width="8" stroke-linecap="round" opacity="0.5"/>
    <path d="M 40 50 L 200 200 M 130 50 L 500 160 M 0 100 L 120 200" fill="none" stroke="#5c2f0d" stroke-width="6" stroke-linecap="round" opacity="0.15"/>
    <radialGradient id="toast-grad" cx="50%" cy="50%" r="50%">
      <stop offset="30%" stop-color="#8a4d1f" stop-opacity="0"/>
      <stop offset="100%" stop-color="#5c2f0d" stop-opacity="0.45"/>
    </radialGradient>
    <path d="M 256 20 C 460 20, 492 60, 492 128 C 492 196, 460 236, 256 236 C 52 236, 20 196, 20 128 C 20 60, 52 20, 256 20 Z" fill="url(#toast-grad)"/>

  </g>
</svg>