<svg width="512" height="256" viewBox="0 0 512 256" xmlns="http://www.w3.org/2000/svg">
  <defs>
    <filter id="shadow" x="-30%" y="-30%" width="160%" height="160%">
      <feDropShadow dx="0" dy="8" stdDeviation="6" flood-color="#000" flood-opacity="0.35"/>
    </filter>
    <filter id="inner-shadow">
      <feOffset dx="0" dy="0"/>
      <feGaussianBlur stdDeviation="4" result="offset-blur"/>
      <feComposite operator="out" in="SourceGraphic" in2="offset-blur" result="inverse"/>
      <feFlood flood-color="black" flood-opacity="0.4" result="color"/>
      <feComposite operator="in" in="color" in2="inverse" result="shadow"/>
      <feComposite operator="over" in="shadow" in2="SourceGraphic"/>
    </filter>

    <radialGradient id="crust-wheat" cx="50%" cy="50%" r="50%">
      <stop offset="50%" stop-color="#B5825B"/>
      <stop offset="100%" stop-color="#8F5E36"/>
    </radialGradient>
    <radialGradient id="inner-wheat" cx="45%" cy="45%" r="65%">
      <stop offset="0%" stop-color="#E8D0AE"/>
      <stop offset="100%" stop-color="#D1A67B"/>
    </radialGradient>
  
  </defs>
  <g filter="url(#shadow)">

    <!-- Cartoony Bread Crust -->
    <path d="M 256 20 C 460 20, 492 60, 492 128 C 492 196, 460 236, 256 236 C 52 236, 20 196, 20 128 C 20 60, 52 20, 256 20 Z" fill="url(#crust-wheat)" stroke="#5E381C" stroke-width="12" stroke-linejoin="round"/>
          
    <!-- Inner bread crumb -->
    <path d="M 256 32 C 436 32, 460 68, 460 128 C 460 188, 436 224, 256 224 C 76 224, 52 188, 52 128 C 52 68, 76 32, 256 32 Z" fill="url(#inner-wheat)"/>
          
    <!-- Inner soft shadow / rim -->
    <path d="M 256 32 C 436 32, 460 68, 460 128 C 460 188, 436 224, 256 224 C 76 224, 52 188, 52 128 C 52 68, 76 32, 256 32 Z" fill="none" stroke="#B88B5E" stroke-width="12" opacity="0.85" filter="blur(3px)"/>

    <g>
      <circle cx="263.9584543008091" cy="60.926896190488534" r="2.6874026218973066" fill="#70421A" opacity="0.85"/>
<circle cx="280.19516324511903" cy="67.09637495422996" r="2.35733497599049" fill="#70421A" opacity="0.85"/>
<circle cx="378.0774650604474" cy="223.0941308217206" r="3.242834056185624" fill="#70421A" opacity="0.85"/>
<circle cx="85.68388547851612" cy="189.38033369536316" r="3.936031037958889" fill="#70421A" opacity="0.85"/>
<circle cx="60.86369613288663" cy="61.34535194795806" r="1.903916732697179" fill="#70421A" opacity="0.85"/>
<circle cx="283.9130667093078" cy="154.62335616885957" r="3.7130525275421373" fill="#70421A" opacity="0.85"/>
<circle cx="182.58346286659463" cy="156.61172389037716" r="2.6366079596494956" fill="#70421A" opacity="0.85"/>
<circle cx="98.69204335470658" cy="224.6120609356458" r="1.9512186924551238" fill="#70421A" opacity="0.85"/>
<circle cx="33.76271437764492" cy="115.86094786037977" r="1.2117921561082547" fill="#70421A" opacity="0.85"/>
<circle cx="151.14700699797834" cy="222.31003261011043" r="2.457811611563318" fill="#70421A" opacity="0.85"/>
<circle cx="236.60442529652263" cy="90.92597474949605" r="3.5916108103450113" fill="#70421A" opacity="0.85"/>
<circle cx="259.52761709171216" cy="117.64318162430052" r="1.7707192942888483" fill="#70421A" opacity="0.85"/>
<circle cx="317.4850492534083" cy="121.28376896462585" r="3.687460603377754" fill="#70421A" opacity="0.85"/>
<circle cx="384.2129701581016" cy="104.26683424948362" r="1.199388542232838" fill="#70421A" opacity="0.85"/>
<circle cx="447.74593133716496" cy="48.545531571652084" r="2.3338135461050857" fill="#70421A" opacity="0.85"/>
<circle cx="209.64127326009134" cy="214.4286130200759" r="1.3655386401472964" fill="#70421A" opacity="0.85"/>
<circle cx="119.27801848721006" cy="68.21976544299878" r="2.166055428148265" fill="#70421A" opacity="0.85"/>
<circle cx="344.85183421829896" cy="135.00082838428895" r="1.7479497361416203" fill="#70421A" opacity="0.85"/>
<circle cx="77.17152071040441" cy="163.1680196969585" r="2.6727902320666588" fill="#70421A" opacity="0.85"/>
<circle cx="351.12742225478934" cy="166.31605563427698" r="2.87702644867017" fill="#70421A" opacity="0.85"/>
<circle cx="273.6096829160856" cy="185.28383055639517" r="1.076806217861711" fill="#70421A" opacity="0.85"/>
<circle cx="302.0456253469712" cy="190.83061433020345" r="1.2495452416362207" fill="#70421A" opacity="0.85"/>
<circle cx="256.7824890206176" cy="101.24836196451447" r="3.9062700533396946" fill="#70421A" opacity="0.85"/>
<circle cx="234.77085935109994" cy="114.595305861542" r="2.991658045593921" fill="#70421A" opacity="0.85"/>
<circle cx="233.60056783064528" cy="96.14124136216833" r="3.1471045840457426" fill="#70421A" opacity="0.85"/>
<circle cx="468.8129603559321" cy="166.60348334129006" r="1.7300471498919416" fill="#70421A" opacity="0.85"/>
<circle cx="180.48142785586222" cy="215.30385615755492" r="1.0540713495447287" fill="#70421A" opacity="0.85"/>
<circle cx="255.58787992126236" cy="35.34350390203561" r="3.944363220484549" fill="#70421A" opacity="0.85"/>
<circle cx="135.1413252152165" cy="193.6025756903525" r="2.721870742436285" fill="#70421A" opacity="0.85"/>
<circle cx="387.32963629987853" cy="158.0385783535471" r="1.4275654285147197" fill="#70421A" opacity="0.85"/>
<circle cx="178.53152968744357" cy="135.2625005205844" r="1.7709145894207747" fill="#70421A" opacity="0.85"/>
<circle cx="396.2283400736953" cy="33.07728065392243" r="1.0878974679068638" fill="#70421A" opacity="0.85"/>
<circle cx="303.3690702155916" cy="169.6515579705046" r="3.5836015217417634" fill="#70421A" opacity="0.85"/>
<circle cx="32.88940033993542" cy="51.252239876224564" r="1.278987075867323" fill="#70421A" opacity="0.85"/>
<circle cx="367.9185258408284" cy="77.46185905388037" r="2.222377347353924" fill="#70421A" opacity="0.85"/>
<circle cx="136.67926505150297" cy="132.43116702616743" r="3.6598717086593355" fill="#70421A" opacity="0.85"/>
<circle cx="467.1023895637948" cy="170.13597755489755" r="3.8966207592001094" fill="#70421A" opacity="0.85"/>
<circle cx="287.62070750395856" cy="206.31866858681735" r="3.3413621964448526" fill="#70421A" opacity="0.85"/>
<circle cx="71.3064573739177" cy="134.7234943421592" r="2.1154904567269455" fill="#70421A" opacity="0.85"/>
<circle cx="413.33149719696524" cy="200.73914278007857" r="2.2245733150696103" fill="#70421A" opacity="0.85"/>
<circle cx="363.36380531027487" cy="225.59447537241215" r="2.965441266328444" fill="#70421A" opacity="0.85"/>
<circle cx="412.75609701554964" cy="81.74336675149345" r="1.7779699112524368" fill="#70421A" opacity="0.85"/>
<circle cx="321.5994907054881" cy="209.8634289579997" r="2.4888654243706787" fill="#70421A" opacity="0.85"/>
<circle cx="37.345906991117694" cy="224.85003176988906" r="1.7821297155265732" fill="#70421A" opacity="0.85"/>
<circle cx="388.09608169754483" cy="98.88503843413811" r="1.7121776278493295" fill="#70421A" opacity="0.85"/>
<circle cx="57.66382076855028" cy="196.04029574295984" r="3.6038849014118024" fill="#70421A" opacity="0.85"/>
<circle cx="36.61718783617262" cy="76.49825729758926" r="3.111469216238633" fill="#70421A" opacity="0.85"/>
<circle cx="76.84035234614338" cy="77.55462056581291" r="3.2577173936004926" fill="#70421A" opacity="0.85"/>
<circle cx="186.63096808470584" cy="131.1618893959763" r="3.4630815284714576" fill="#70421A" opacity="0.85"/>
<circle cx="64.83197231989745" cy="57.96749026143067" r="1.4133673077487436" fill="#70421A" opacity="0.85"/>
<circle cx="393.25129979185704" cy="181.5545134720744" r="3.274405197809581" fill="#70421A" opacity="0.85"/>
<circle cx="369.99373239729044" cy="51.69214115993367" r="3.5169689724926716" fill="#70421A" opacity="0.85"/>
<circle cx="73.78432452118102" cy="45.25993706006922" r="2.338391149868932" fill="#70421A" opacity="0.85"/>
<circle cx="471.79985194151135" cy="152.1115155168431" r="2.750221043099267" fill="#70421A" opacity="0.85"/>
<circle cx="345.9697841289626" cy="200.09264850477786" r="2.9366363206964983" fill="#70421A" opacity="0.85"/>
<circle cx="261.1673490092652" cy="73.5898952139352" r="2.735018806244706" fill="#70421A" opacity="0.85"/>
<circle cx="55.55334660819991" cy="149.37802938036657" r="2.928128979726992" fill="#70421A" opacity="0.85"/>
<circle cx="353.85414652755185" cy="65.8982249294291" r="2.525921306340726" fill="#70421A" opacity="0.85"/>
<circle cx="245.3821876552811" cy="187.9986105797658" r="1.8174081297992544" fill="#70421A" opacity="0.85"/>
<circle cx="84.10625287861367" cy="35.14364263202959" r="1.5259084137756942" fill="#70421A" opacity="0.85"/>
<circle cx="148.74302344692893" cy="145.89254272749304" r="1.9889307448707756" fill="#70421A" opacity="0.85"/>
<circle cx="41.822316727757126" cy="220.20973584531782" r="1.5374214294939728" fill="#70421A" opacity="0.85"/>
<circle cx="241.50232005909717" cy="50.19496839687893" r="3.8026356069925713" fill="#70421A" opacity="0.85"/>
<circle cx="75.5980461324479" cy="90.5221179965618" r="3.9544825142202944" fill="#70421A" opacity="0.85"/>
<circle cx="167.15994887916472" cy="184.7707995011504" r="2.8939446429567783" fill="#70421A" opacity="0.85"/>
<circle cx="36.813557427257734" cy="92.19868196698391" r="2.1633346078782867" fill="#70421A" opacity="0.85"/>
<circle cx="360.5354771211903" cy="224.38693199980344" r="1.5308812382205423" fill="#70421A" opacity="0.85"/>
<circle cx="263.5515637401204" cy="176.43260589578475" r="3.2623897011944574" fill="#70421A" opacity="0.85"/>
<circle cx="435.6722452994312" cy="84.15693319600352" r="2.7785243942498545" fill="#70421A" opacity="0.85"/>
<circle cx="258.6594852669913" cy="78.5801787931427" r="3.117072720376055" fill="#70421A" opacity="0.85"/>
<circle cx="267.7479704604858" cy="113.33030733170894" r="3.9417151986581542" fill="#70421A" opacity="0.85"/>
<circle cx="42.19839673449913" cy="61.72881757058102" r="2.57700572195495" fill="#70421A" opacity="0.85"/>
<circle cx="53.775083225273754" cy="205.73128582081705" r="2.3765751255026015" fill="#70421A" opacity="0.85"/>
<circle cx="290.5832739151344" cy="87.23293505966629" r="3.373799774555362" fill="#70421A" opacity="0.85"/>
<circle cx="50.45894418691876" cy="30.043818558569246" r="1.3919846357679586" fill="#70421A" opacity="0.85"/>
<circle cx="254.1546791224328" cy="209.16086182584337" r="2.8467920939660547" fill="#70421A" opacity="0.85"/>
<circle cx="69.77429921357464" cy="104.988943443766" r="2.0745914937254897" fill="#70421A" opacity="0.85"/>
<circle cx="226.38291747571017" cy="145.13834838534342" r="2.9417556896665964" fill="#70421A" opacity="0.85"/>
<circle cx="304.21048349066507" cy="82.82622959984387" r="1.5848279394661335" fill="#70421A" opacity="0.85"/>
<circle cx="279.1665594908484" cy="184.8374432716492" r="3.570673123481191" fill="#70421A" opacity="0.85"/>
<circle cx="443.04903840466426" cy="213.64753487089254" r="3.6333699178907595" fill="#70421A" opacity="0.85"/>
<circle cx="299.28395300936563" cy="161.79008758491221" r="1.680269657747023" fill="#70421A" opacity="0.85"/>
<circle cx="443.3794817147637" cy="223.36461268868896" r="1.4143534425855173" fill="#70421A" opacity="0.85"/>
<circle cx="48.43869358059348" cy="161.237824824419" r="1.6162727128419965" fill="#70421A" opacity="0.85"/>
<circle cx="84.34475427677359" cy="81.62497506591447" r="2.60110999144391" fill="#70421A" opacity="0.85"/>
<circle cx="439.3320478672053" cy="109.11559561801248" r="2.8208495450269218" fill="#70421A" opacity="0.85"/>
<circle cx="119.58835996008234" cy="67.70335499267259" r="2.433280960876646" fill="#70421A" opacity="0.85"/>
<circle cx="288.6678381027962" cy="204.299314838529" r="2.538857618182372" fill="#70421A" opacity="0.85"/>
<circle cx="346.5023789712784" cy="213.0204660206257" r="2.1613507691353906" fill="#70421A" opacity="0.85"/>
<circle cx="386.96379853449736" cy="84.16866077606753" r="1.7239897995746896" fill="#70421A" opacity="0.85"/>
<circle cx="416.6479904502732" cy="163.15537036607117" r="3.160475950813127" fill="#70421A" opacity="0.85"/>
<circle cx="337.07077750208236" cy="46.82821997322244" r="3.1943039593154485" fill="#70421A" opacity="0.85"/>
<circle cx="475.6755351884604" cy="198.21241326667106" r="3.962187254592715" fill="#70421A" opacity="0.85"/>
<circle cx="321.89801212794004" cy="178.80251577947436" r="2.932795276511074" fill="#70421A" opacity="0.85"/>
<circle cx="332.16806983072047" cy="92.59336638505033" r="2.85515474519104" fill="#70421A" opacity="0.85"/>
<circle cx="266.4074953532063" cy="81.54064844545334" r="3.7942754247776977" fill="#70421A" opacity="0.85"/>
<circle cx="250.13774480375477" cy="61.06376455481441" r="1.7016932523236674" fill="#70421A" opacity="0.85"/>
<circle cx="36.89294345015041" cy="79.33022719957461" r="2.5148247998775544" fill="#70421A" opacity="0.85"/>
<circle cx="384.18298657573814" cy="122.99304263454438" r="2.948978535883098" fill="#70421A" opacity="0.85"/>
<circle cx="383.8603814067876" cy="69.75459802634037" r="1.8013790822303726" fill="#70421A" opacity="0.85"/>
<circle cx="387.0051351823261" cy="168.1058007632937" r="2.9210468732319694" fill="#70421A" opacity="0.85"/>
<circle cx="477.3842053818925" cy="175.07103045262713" r="3.509899578336651" fill="#70421A" opacity="0.85"/>
<circle cx="97.09154433624833" cy="71.1809050665734" r="1.3983422619506793" fill="#70421A" opacity="0.85"/>
<circle cx="157.78577193713699" cy="122.58832079871705" r="1.240895706380813" fill="#70421A" opacity="0.85"/>
<circle cx="48.732444282090704" cy="77.77333928261307" r="3.3034640572574787" fill="#70421A" opacity="0.85"/>
<circle cx="208.31299314334476" cy="132.74763513408368" r="3.8955030402466546" fill="#70421A" opacity="0.85"/>
<circle cx="196.03671969408944" cy="74.78654667625898" r="1.9111103592860736" fill="#70421A" opacity="0.85"/>
<circle cx="209.48187360277336" cy="186.80334275717632" r="1.315219588639454" fill="#70421A" opacity="0.85"/>
<circle cx="297.7122930866123" cy="69.87832395357512" r="1.5919082362870816" fill="#70421A" opacity="0.85"/>
<circle cx="118.76875432255447" cy="155.26531406120517" r="3.7343420068415014" fill="#70421A" opacity="0.85"/>
<circle cx="44.40229322628797" cy="181.90507964861996" r="3.868463377551208" fill="#70421A" opacity="0.85"/>
<circle cx="264.56498340983035" cy="126.80695376449155" r="2.769045019713785" fill="#70421A" opacity="0.85"/>
<circle cx="80.85386818332191" cy="51.69619429923" r="1.945322763195855" fill="#70421A" opacity="0.85"/>
<circle cx="358.7903022305996" cy="117.47823697290082" r="1.8023917149958804" fill="#70421A" opacity="0.85"/>
<circle cx="226.30961059533348" cy="141.3077118777341" r="1.4077705099321651" fill="#70421A" opacity="0.85"/>
<circle cx="162.20726584938777" cy="61.23134631076523" r="3.480393576461378" fill="#70421A" opacity="0.85"/>
<circle cx="345.28106188166566" cy="175.00679357218414" r="1.5190596848972913" fill="#70421A" opacity="0.85"/>
<circle cx="93.87233960334518" cy="62.61309182199294" r="2.2925893260778207" fill="#70421A" opacity="0.85"/>
<circle cx="367.0691102054184" cy="49.68665754094798" r="1.5425111853939222" fill="#70421A" opacity="0.85"/>
<circle cx="393.7844217039255" cy="101.53513703682557" r="3.204946669650846" fill="#70421A" opacity="0.85"/>
<circle cx="72.497416161026" cy="150.9285957465439" r="3.8091746234282584" fill="#70421A" opacity="0.85"/>
<circle cx="317.5680599348915" cy="104.49599314250005" r="1.905678151267304" fill="#70421A" opacity="0.85"/>
<circle cx="177.10723344507213" cy="178.97625919370535" r="3.4247971452539328" fill="#70421A" opacity="0.85"/>
<circle cx="467.73900082672594" cy="211.0377516197314" r="3.867031050660379" fill="#70421A" opacity="0.85"/>
<circle cx="318.96364262979426" cy="139.47633884065647" r="3.7188978980099145" fill="#70421A" opacity="0.85"/>
<circle cx="267.4325540241932" cy="56.688594718452975" r="2.0676845992169857" fill="#70421A" opacity="0.85"/>
<circle cx="478.72913968001603" cy="51.08612706583201" r="2.9745993503206742" fill="#70421A" opacity="0.85"/>
<circle cx="39.225870147681576" cy="119.22926943729753" r="3.667483079673607" fill="#70421A" opacity="0.85"/>
<circle cx="94.28307787546602" cy="112.68862737429426" r="1.4226035856769483" fill="#70421A" opacity="0.85"/>
<circle cx="468.75537362134736" cy="142.27042554292296" r="3.2438564640560825" fill="#70421A" opacity="0.85"/>
<circle cx="242.59850050956774" cy="101.9579196102581" r="2.662533328189051" fill="#70421A" opacity="0.85"/>
<circle cx="298.7369697155574" cy="62.21011898580074" r="1.9405010388660129" fill="#70421A" opacity="0.85"/>
<circle cx="305.4989253203167" cy="188.7684780995399" r="1.6680317722458242" fill="#70421A" opacity="0.85"/>
<circle cx="467.53820924818103" cy="120.27659062961608" r="3.4016732103896414" fill="#70421A" opacity="0.85"/>
<circle cx="275.5759746159008" cy="193.54184598251075" r="1.545663772777854" fill="#70421A" opacity="0.85"/>
<circle cx="436.37829053832417" cy="72.27550700079856" r="1.1925000851039467" fill="#70421A" opacity="0.85"/>
<circle cx="287.32472789277887" cy="79.27461363768371" r="1.6362503145331901" fill="#70421A" opacity="0.85"/>
<circle cx="215.668168216428" cy="202.7728068750875" r="2.022241331156845" fill="#70421A" opacity="0.85"/>
<circle cx="185.3883645686557" cy="191.15568647143493" r="2.313942750525354" fill="#70421A" opacity="0.85"/>
<circle cx="81.50492598811874" cy="217.7967581722129" r="2.284673837945641" fill="#70421A" opacity="0.85"/>
<circle cx="160.55262397462704" cy="35.26759594806935" r="3.5513364200862485" fill="#70421A" opacity="0.85"/>
<circle cx="391.9459228912245" cy="59.63134951059182" r="2.369990770680693" fill="#70421A" opacity="0.85"/>
<circle cx="271.9775718438682" cy="62.796537045398075" r="3.3267990595280175" fill="#70421A" opacity="0.85"/>
<circle cx="261.47075989894665" cy="219.55744470211042" r="1.8336113649196748" fill="#70421A" opacity="0.85"/>
<circle cx="369.65961182568657" cy="159.20572254358277" r="1.045361452159123" fill="#70421A" opacity="0.85"/>
<circle cx="72.72837959722642" cy="53.425614244885665" r="2.318216139750783" fill="#70421A" opacity="0.85"/>
<circle cx="44.96854189075976" cy="44.65373177175954" r="3.8537372761656963" fill="#70421A" opacity="0.85"/>
<circle cx="358.95603394328526" cy="126.39078843104659" r="2.170647961099494" fill="#70421A" opacity="0.85"/>
<circle cx="270.866004644233" cy="53.794388749949576" r="2.9138647292464914" fill="#70421A" opacity="0.85"/>
<circle cx="476.08582889555635" cy="180.99459870566292" r="1.2785386489484352" fill="#70421A" opacity="0.85"/>

    </g>
    
    <path d="M 64 64 C 180 44, 320 40, 450 48" fill="none" stroke="#FFFFFF" stroke-width="8" stroke-linecap="round" opacity="0.35"/>
  
  </g>
</svg>