<svg width="128" height="128" viewBox="0 0 128 128" xmlns="http://www.w3.org/2000/svg">\n  <defs>\n    <filter id="shadow" x="-20%" y="-20%" width="140%" height="140%">\n      <feDropShadow dx="2" dy="2" stdDeviation="2" flood-color="#000" flood-opacity="0.2"/>\n    </filter>\n<linearGradient id="stack-am-grad" x1="0%" y1="0%" x2="0%" y2="100%">\n  <stop offset="0%" stop-color="#FFD54F"/>\n  <stop offset="100%" stop-color="#FF9800"/>\n</linearGradient>\n  </defs>\n  <g filter="url(#shadow)">\n<g transform="rotate(-5 64 64)">\n<path d="M 20 80 L 108 80 L 108 84 L 20 84 Z" fill="#FF9800"/>\n<path d="M 25 70 L 113 70 L 108 80 L 20 80 Z" fill="url(#stack-am-grad)" stroke="#F57C00" stroke-width="1.5" stroke-linejoin="round"/>\n<path d="M 22 80 L 106 80" fill="none" stroke="#FFF" stroke-width="1.5" opacity="0.7"/>\n</g>\n<g transform="rotate(3 64 64)">\n<path d="M 20 72 L 108 72 L 108 76 L 20 76 Z" fill="#FF9800"/>\n<path d="M 25 62 L 113 62 L 108 72 L 20 72 Z" fill="url(#stack-am-grad)" stroke="#F57C00" stroke-width="1.5" stroke-linejoin="round"/>\n<path d="M 22 72 L 106 72" fill="none" stroke="#FFF" stroke-width="1.5" opacity="0.7"/>\n</g>\n<g transform="rotate(-2 64 64)">\n<path d="M 20 64 L 108 64 L 108 68 L 20 68 Z" fill="#FFB300"/>\n<path d="M 25 54 L 113 54 L 108 64 L 20 64 Z" fill="#FFD54F" stroke="#F57C00" stroke-width="1.5" stroke-linejoin="round"/>\n<path d="M 22 64 L 106 64" fill="none" stroke="#FFF" stroke-width="1.5" opacity="0.7"/>\n</g>\n<g transform="rotate(4 64 64)">\n<path d="M 20 56 L 108 56 L 108 60 L 20 60 Z" fill="#FF9800"/>\n<path d="M 25 46 L 113 46 L 108 56 L 20 56 Z" fill="url(#stack-am-grad)" stroke="#F57C00" stroke-width="1.5" stroke-linejoin="round"/>\n<path d="M 22 56 L 106 56" fill="none" stroke="#FFF" stroke-width="1.5" opacity="0.7"/>\n</g>\n  </g>\n</svg>