<svg width="256" height="256" viewBox="0 0 256 256" xmlns="http://www.w3.org/2000/svg">\n  <defs>\n    <filter id="shadow" x="-20%" y="-20%" width="140%" height="140%">\n      <feDropShadow dx="2" dy="2" stdDeviation="2" flood-color="#000" flood-opacity="0.2"/>\n    </filter>\n<linearGradient id="sw-grad" x1="0%" y1="0%" x2="100%" y2="100%">\n  <stop offset="0%" stop-color="#FFF9C4"/>\n  <stop offset="50%" stop-color="#FFF176"/>\n  <stop offset="100%" stop-color="#FBC02D"/>\n</linearGradient>\n<radialGradient id="hole-shadow" cx="50%" cy="50%" r="50%">\n  <stop offset="70%" stop-color="#000" stop-opacity="0.3"/>\n  <stop offset="100%" stop-color="#000" stop-opacity="0"/>\n</radialGradient>\n  </defs>\n  <g filter="url(#shadow)">\n<path d="M 40 120 Q 40 60 130 50 Q 210 40 220 110 Q 230 180 140 190 Q 50 200 40 120 Z" fill="url(#sw-grad)" stroke="#FBC02D" stroke-width="4" stroke-linejoin="round"/>\n<path d="M 60 100 Q 60 70 120 65" fill="none" stroke="#FFF" stroke-width="6" stroke-linecap="round" opacity="0.8"/>\n<circle cx="90" cy="90" r="20" fill="#E6AE25" stroke="#FBC02D" stroke-width="2"/>\n<path d="M 74 86 A 20 20 0 0 1 94 74" fill="none" stroke="#C89000" stroke-width="4" stroke-linecap="round"/>\n<path d="M 106 94 A 20 20 0 0 1 86 106" fill="none" stroke="#FFF" stroke-width="3" stroke-linecap="round" opacity="0.7"/>\n<circle cx="160" cy="110" r="25" fill="#E6AE25" stroke="#FBC02D" stroke-width="2"/>\n<path d="M 140 105 A 25 25 0 0 1 165 90" fill="none" stroke="#C89000" stroke-width="4" stroke-linecap="round"/>\n<path d="M 180 115 A 25 25 0 0 1 155 130" fill="none" stroke="#FFF" stroke-width="3" stroke-linecap="round" opacity="0.7"/>\n<circle cx="110" cy="150" r="15" fill="#E6AE25" stroke="#FBC02D" stroke-width="2"/>\n<path d="M 98 147 A 15 15 0 0 1 113 138" fill="none" stroke="#C89000" stroke-width="4" stroke-linecap="round"/>\n<path d="M 122 153 A 15 15 0 0 1 107 162" fill="none" stroke="#FFF" stroke-width="3" stroke-linecap="round" opacity="0.7"/>\n<circle cx="60" cy="140" r="12" fill="#E6AE25" stroke="#FBC02D" stroke-width="2"/>\n<path d="M 50.4 137.6 A 12 12 0 0 1 62.4 130.4" fill="none" stroke="#C89000" stroke-width="4" stroke-linecap="round"/>\n<path d="M 69.6 142.4 A 12 12 0 0 1 57.6 149.6" fill="none" stroke="#FFF" stroke-width="3" stroke-linecap="round" opacity="0.7"/>\n<circle cx="180" cy="160" r="18" fill="#E6AE25" stroke="#FBC02D" stroke-width="2"/>\n<path d="M 165.6 156.4 A 18 18 0 0 1 183.6 145.6" fill="none" stroke="#C89000" stroke-width="4" stroke-linecap="round"/>\n<path d="M 194.4 163.6 A 18 18 0 0 1 176.4 174.4" fill="none" stroke="#FFF" stroke-width="3" stroke-linecap="round" opacity="0.7"/>\n<circle cx="140" cy="65" r="12" fill="#E6AE25" stroke="#FBC02D" stroke-width="2"/>\n<path d="M 130.4 62.6 A 12 12 0 0 1 142.4 55.4" fill="none" stroke="#C89000" stroke-width="4" stroke-linecap="round"/>\n<path d="M 149.6 67.4 A 12 12 0 0 1 137.6 74.6" fill="none" stroke="#FFF" stroke-width="3" stroke-linecap="round" opacity="0.7"/>\n  </g>\n</svg>