<svg width="128" height="128" viewBox="0 0 128 128" xmlns="http://www.w3.org/2000/svg">\n  <defs>\n    <filter id="shadow" x="-20%" y="-20%" width="140%" height="140%">\n      <feDropShadow dx="2" dy="2" stdDeviation="2" flood-color="#000" flood-opacity="0.2"/>\n    </filter>\n<linearGradient id="stack-sw-grad" x1="0%" y1="0%" x2="0%" y2="100%">\n  <stop offset="0%" stop-color="#FFF9C4"/>\n  <stop offset="100%" stop-color="#FBC02D"/>\n</linearGradient>\n  </defs>\n  <g filter="url(#shadow)">\n<g transform="rotate(4 64 64)">\n<path d="M 20 80 L 108 80 L 108 84 L 20 84 Z" fill="#FBC02D"/>\n<path d="M 25 70 L 113 70 L 108 80 L 20 80 Z" fill="url(#stack-sw-grad)" stroke="#FBC02D" stroke-width="1.5" stroke-linejoin="round"/>\n<path d="M 22 80 L 106 80" fill="none" stroke="#FFF" stroke-width="1.5" opacity="0.6"/>\n</g>\n<g transform="rotate(-2 64 64)">\n<path d="M 20 72 L 108 72 L 108 76 L 20 76 Z" fill="#FBC02D"/>\n<path d="M 25 62 L 113 62 L 108 72 L 20 72 Z" fill="url(#stack-sw-grad)" stroke="#FBC02D" stroke-width="1.5" stroke-linejoin="round"/>\n<path d="M 22 72 L 106 72" fill="none" stroke="#FFF" stroke-width="1.5" opacity="0.6"/>\n</g>\n<g transform="rotate(5 64 64)">\n<path d="M 20 64 L 108 64 L 108 68 L 20 68 Z" fill="#FBC02D"/>\n<path d="M 25 54 L 113 54 L 108 64 L 20 64 Z" fill="url(#stack-sw-grad)" stroke="#FBC02D" stroke-width="1.5" stroke-linejoin="round"/>\n<path d="M 22 64 L 106 64" fill="none" stroke="#FFF" stroke-width="1.5" opacity="0.6"/>\n<ellipse cx="70" cy="59" rx="6" ry="3" fill="#E6AE25"/>\n<ellipse cx="70" cy="62" rx="4" ry="2" fill="#E6AE25"/>\n<path d="M 66 59 Q 70 62 74 59" fill="none" stroke="#FFF" stroke-width="1" opacity="0.8"/>\n</g>\n<g transform="rotate(-3 64 64)">\n<path d="M 20 56 L 108 56 L 108 60 L 20 60 Z" fill="#FBC02D"/>\n<path d="M 25 46 L 113 46 L 108 56 L 20 56 Z" fill="url(#stack-sw-grad)" stroke="#FBC02D" stroke-width="1.5" stroke-linejoin="round"/>\n<path d="M 22 56 L 106 56" fill="none" stroke="#FFF" stroke-width="1.5" opacity="0.6"/>\n<ellipse cx="85" cy="51" rx="6" ry="3" fill="#E6AE25"/>\n<ellipse cx="65" cy="54" rx="4" ry="2" fill="#E6AE25"/>\n<path d="M 81 51 Q 85 54 89 51" fill="none" stroke="#FFF" stroke-width="1" opacity="0.8"/>\n</g>\n  </g>\n</svg>