<svg width="128" height="128" viewBox="0 0 128 128" xmlns="http://www.w3.org/2000/svg">
  <defs>
    <filter id="shadow" x="-20%" y="-20%" width="140%" height="140%">
      <feDropShadow dx="2" dy="4" stdDeviation="3" flood-color="#000" flood-opacity="0.25"/>
    </filter>

    <linearGradient id="loaf-crust-sourdough" x1="0%" y1="0%" x2="0%" y2="100%">
      <stop offset="0%" stop-color="#D4B88E"/>
      <stop offset="40%" stop-color="#A88D68"/>
      <stop offset="100%" stop-color="#7A6242"/>
    </linearGradient>
  
  </defs>
  <g filter="url(#shadow)">

    <!-- Loaf Body -->
    <path d="M 20 80 Q 20 20 64 20 Q 108 20 108 80 L 108 100 Q 108 110 64 110 Q 20 110 20 100 Z" 
          fill="url(#loaf-crust-sourdough)" stroke="#7A6242" stroke-width="4" stroke-linejoin="round"/>
          
    <path d="M 24 80 Q 24 24 64 24 Q 104 24 104 80 L 104 98 Q 104 106 64 106 Q 24 106 24 98 Z" 
          fill="none" stroke="#FFFFFF" stroke-width="3" opacity="0.2"/>

    
    <path d="M 30 20 Q 50 40 30 60" fill="none" stroke="#D4C69F" stroke-width="4" stroke-linecap="round" opacity="0.6"/>
    <path d="M 64 20 Q 84 40 64 60" fill="none" stroke="#D4C69F" stroke-width="4" stroke-linecap="round" opacity="0.6"/>
    <path d="M 98 20 Q 118 40 98 60" fill="none" stroke="#D4C69F" stroke-width="4" stroke-linecap="round" opacity="0.6"/>
  
    
    <!-- Cartoon Highlight -->
    <path d="M 36 30 Q 64 26 92 30" fill="none" stroke="#FFFFFF" stroke-width="4" stroke-linecap="round" opacity="0.4"/>
  
  </g>
</svg>