<svg width="128" height="88" viewBox="0 0 128 88" xmlns="http://www.w3.org/2000/svg">
  <defs>
    <filter id="shadow" x="-20%" y="-20%" width="140%" height="140%">
      <feDropShadow dx="2" dy="2" stdDeviation="2" flood-color="#000" flood-opacity="0.3"/>
    </filter>
<linearGradient id="pile-tk-grad" x1="0%" y1="0%" x2="0%" y2="100%">\n<stop offset="0%" stop-color="#FFFFFF"/>\n<stop offset="100%" stop-color="#D2B48C"/>\n</linearGradient>\n
  </defs>
  <g filter="url(#shadow)">
<!-- Base shadow -->\n  <ellipse cx="64" cy="65" rx="50" ry="20" fill="#000" opacity="0.3" />\n<path d="M 25 55 C 35 25, 75 25, 80 50 C 85 75, 35 75, 25 55 Z" fill="url(#pile-tk-grad)" stroke="#8B4513" stroke-width="1.5" />\n<path d="M 55 45 C 65 15, 105 15, 110 40 C 115 65, 65 65, 55 45 Z" fill="url(#pile-tk-grad)" stroke="#8B4513" stroke-width="1.5" />\n<path d="M 40 40 C 50 10, 90 10, 95 35 C 100 60, 50 60, 40 40 Z" fill="#FFF8DC" stroke="#8B4513" stroke-width="1.5" />\n<!-- Herb spotting -->\n<circle cx="50" cy="30" r="1.5" fill="#8B4513" opacity="0.6"/>\n<circle cx="70" cy="25" r="1.5" fill="#8B4513" opacity="0.5"/>\n<circle cx="85" cy="45" r="1.5" fill="#8B4513" opacity="0.4"/>\n<circle cx="45" cy="50" r="1" fill="#8B4513" opacity="0.5"/>\n<circle cx="65" cy="45" r="1" fill="#8B4513" opacity="0.6"/>\n
  </g>
</svg>