<svg width="256" height="256" viewBox="0 0 256 256" xmlns="http://www.w3.org/2000/svg">
  <defs>
    <filter id="shadow" x="-20%" y="-20%" width="140%" height="140%">
      <feDropShadow dx="2" dy="2" stdDeviation="2" flood-color="#000" flood-opacity="0.3"/>
    </filter>

      <linearGradient id="bacon-grad1" x1="0%" y1="0%" x2="0%" y2="100%">
        <stop offset="0%" stop-color="#8B0000"/>
        <stop offset="30%" stop-color="#CD5C5C"/>
        <stop offset="50%" stop-color="#FFE4E1"/>
        <stop offset="70%" stop-color="#CD5C5C"/>
        <stop offset="100%" stop-color="#8B0000"/>
      </linearGradient>
      <linearGradient id="bacon-grad2" x1="0%" y1="0%" x2="0%" y2="100%">
        <stop offset="0%" stop-color="#A52A2A"/>
        <stop offset="40%" stop-color="#F08080"/>
        <stop offset="60%" stop-color="#FFF0F5"/>
        <stop offset="100%" stop-color="#A52A2A"/>
      </linearGradient>
    
  </defs>
  <g filter="url(#shadow)">

      <!-- Bacon Strip 1 -->
      <path d="M 40 50 Q 70 30 100 60 T 160 50 T 220 70 L 220 90 Q 160 70 100 80 T 40 70 Z" fill="url(#bacon-grad1)" stroke="#5C0000" stroke-width="2"/>
      <path d="M 45 60 Q 75 40 105 70 T 165 60 T 215 80" fill="none" stroke="#FFF" stroke-width="4" opacity="0.6"/>
      
      <!-- Bacon Strip 2 -->
      <path d="M 30 110 Q 60 90 90 120 T 150 110 T 210 130 L 210 150 Q 150 130 90 140 T 30 130 Z" fill="url(#bacon-grad2)" stroke="#5C0000" stroke-width="2"/>
      <path d="M 35 120 Q 65 100 95 130 T 155 120 T 205 140" fill="none" stroke="#FFF" stroke-width="4" opacity="0.6"/>

      <!-- Bacon Strip 3 -->
      <path d="M 50 170 Q 80 150 110 180 T 170 170 T 230 190 L 230 210 Q 170 190 110 200 T 50 190 Z" fill="url(#bacon-grad1)" stroke="#5C0000" stroke-width="2"/>
      <path d="M 55 180 Q 85 160 115 190 T 175 180 T 225 200" fill="none" stroke="#FFF" stroke-width="4" opacity="0.6"/>
      
      <!-- Highlights/Crispness -->
      <path d="M 50 70 L 60 75 M 150 70 L 160 65 M 90 140 L 100 135 M 160 190 L 170 195" fill="none" stroke="#3E0000" stroke-width="3" stroke-linecap="round" opacity="0.5"/>
    
  </g>
</svg>