<svg width="128" height="88" viewBox="0 0 128 88" xmlns="http://www.w3.org/2000/svg">
  <defs>
    <filter id="shadow" x="-20%" y="-20%" width="140%" height="140%">
      <feDropShadow dx="2" dy="2" stdDeviation="2" flood-color="#000" flood-opacity="0.3"/>
    </filter>

  </defs>
  <g filter="url(#shadow)">
<!-- Base shadow -->\n  <ellipse cx="64" cy="65" rx="50" ry="20" fill="#000" opacity="0.3" />\n<!-- Back strips -->\n<path d="M 20 60 Q 40 40 60 60 T 100 50 L 105 60 Q 65 70 45 50 T 15 65 Z" fill="#8B0000" stroke="#5C0000" stroke-width="1"/>\n<path d="M 25 58 Q 45 38 65 58 T 95 48" fill="none" stroke="#FFE4E1" stroke-width="2" opacity="0.7"/>\n<!-- Mid strips -->\n<path d="M 30 50 Q 50 30 70 50 T 110 40 L 115 50 Q 75 60 55 40 T 25 55 Z" fill="#B22222" stroke="#8B0000" stroke-width="1"/>\n<path d="M 35 48 Q 55 28 75 48 T 105 38" fill="none" stroke="#FFE4E1" stroke-width="2" opacity="0.8"/>\n<!-- Front strips -->\n<path d="M 40 38 Q 60 18 80 38 T 100 35 L 105 45 Q 85 55 65 35 T 35 45 Z" fill="#CD5C5C" stroke="#A52A2A" stroke-width="1"/>\n<path d="M 45 36 Q 65 16 85 36 T 95 33" fill="none" stroke="#FFF" stroke-width="3" stroke-linecap="round" opacity="0.9"/>\n<!-- Grease shine -->\n<circle cx="60" cy="35" r="2.5" fill="#FFF" opacity="0.8"/>\n<circle cx="80" cy="45" r="1.5" fill="#FFF" opacity="0.7"/>\n
  </g>
</svg>