<svg width="256" height="256" viewBox="0 0 256 256" xmlns="http://www.w3.org/2000/svg">
  <defs>
    <filter id="shadow" x="-20%" y="-20%" width="140%" height="140%">
      <feDropShadow dx="2" dy="2" stdDeviation="2" flood-color="#000" flood-opacity="0.3"/>
    </filter>

      <radialGradient id="turk-grad" cx="40%" cy="40%" r="60%">
        <stop offset="0%" stop-color="#FFFFFF"/>
        <stop offset="70%" stop-color="#F5F5DC"/>
        <stop offset="100%" stop-color="#D2B48C"/>
      </radialGradient>
      <radialGradient id="turk-grad2" cx="60%" cy="60%" r="60%">
        <stop offset="0%" stop-color="#FFF8DC"/>
        <stop offset="100%" stop-color="#DEB887"/>
      </radialGradient>
    
  </defs>
  <g filter="url(#shadow)">

      <path d="M 50 90 C 40 40, 110 20, 170 40 C 230 60, 240 130, 190 190 C 140 250, 60 210, 40 160 C 20 110, 60 140, 50 90 Z" fill="url(#turk-grad)" stroke="#A0522D" stroke-width="3"/>
      <!-- Darker folded meat chunk -->
      <path d="M 80 80 C 100 60, 160 60, 180 100 C 200 140, 150 180, 100 170 C 50 160, 60 100, 80 80 Z" fill="url(#turk-grad2)" opacity="0.6"/>
      <!-- Folds -->
      <path d="M 60 130 Q 110 160 170 120" fill="none" stroke="#8B4513" stroke-width="4" stroke-linecap="round" opacity="0.3"/>
      <!-- Herb flecks / turkey roasting marks -->
      <circle cx="100" cy="70" r="1.5" fill="#8B4513" opacity="0.5"/>
      <circle cx="140" cy="90" r="2" fill="#8B4513" opacity="0.4"/>
      <circle cx="90" cy="130" r="1.5" fill="#8B4513" opacity="0.6"/>
      <circle cx="160" cy="150" r="2" fill="#8B4513" opacity="0.4"/>
    
  </g>
</svg>