<svg width="128" height="88" viewBox="0 0 128 88" xmlns="http://www.w3.org/2000/svg">
  <defs>
    <filter id="shadow" x="-20%" y="-20%" width="140%" height="140%">
      <feDropShadow dx="2" dy="2" stdDeviation="2" flood-color="#000" flood-opacity="0.3"/>
    </filter>
<linearGradient id="pile-pro-grad" x1="0%" y1="0%" x2="0%" y2="100%">\n<stop offset="0%" stop-color="#b83838"/>\n<stop offset="100%" stop-color="#691a1a"/>\n</linearGradient>\n
  </defs>
  <g filter="url(#shadow)">
<!-- Base shadow -->\n  <ellipse cx="64" cy="65" rx="50" ry="20" fill="#000" opacity="0.3" />\n<path d="M 25 55 Q 35 25 65 35 Q 85 45 75 60 Q 55 75 25 55" fill="url(#pile-pro-grad)" stroke="#4a1010" stroke-width="1.5" />\n<path d="M 55 45 Q 65 15 95 25 Q 115 35 105 50 Q 75 65 55 45" fill="url(#pile-pro-grad)" stroke="#4a1010" stroke-width="1.5" />\n<path d="M 40 40 Q 55 10 85 20 Q 105 35 75 55 Q 45 45 40 40" fill="#912727" stroke="#4a1010" stroke-width="1.5" />\n<!-- Fat striations -->\n<path d="M 30 50 Q 50 35 70 45" fill="none" stroke="#FFF" stroke-width="2" stroke-linecap="round" opacity="0.8"/>\n<path d="M 60 40 Q 80 25 100 35" fill="none" stroke="#FFF" stroke-width="2" stroke-linecap="round" opacity="0.8"/>\n<path d="M 45 35 Q 65 20 85 30" fill="none" stroke="#FFF" stroke-width="2" stroke-linecap="round" opacity="0.9"/>\n
  </g>
</svg>