<svg width="256" height="256" viewBox="0 0 256 256" xmlns="http://www.w3.org/2000/svg">
  <defs>
    <filter id="shadow" x="-20%" y="-20%" width="140%" height="140%">
      <feDropShadow dx="2" dy="2" stdDeviation="2" flood-color="#000" flood-opacity="0.3"/>
    </filter>

      <linearGradient id="pro-grad" x1="0%" y1="0%" x2="100%" y2="100%">
        <stop offset="0%" stop-color="#b83838"/>
        <stop offset="50%" stop-color="#912727"/>
        <stop offset="100%" stop-color="#691a1a"/>
      </linearGradient>
    
  </defs>
  <g filter="url(#shadow)">

      <!-- erratic, highly folded -->
      <path d="M 50 120 C 30 70, 90 20, 150 40 C 210 60, 230 90, 190 150 C 150 210, 210 230, 160 230 C 110 230, 80 180, 50 120 Z" fill="url(#pro-grad)" stroke="#4a1010" stroke-width="3"/>
      
      <!-- Fat marbling -->
      <path d="M 60 110 Q 100 60 140 50" fill="none" stroke="#FFF" stroke-width="4" stroke-linecap="round" opacity="0.8"/>
      <path d="M 80 140 Q 140 100 180 140" fill="none" stroke="#FFF" stroke-width="6" stroke-linecap="round" opacity="0.7"/>
      <path d="M 120 180 Q 160 190 180 210" fill="none" stroke="#FFF" stroke-width="3" stroke-linecap="round" opacity="0.6"/>
      
      <!-- Folds and shadows -->
      <path d="M 80 130 Q 120 90 170 130" fill="none" stroke="#000" stroke-width="6" stroke-linecap="round" opacity="0.2"/>
      <path d="M 70 80 C 100 100, 150 80, 180 120" fill="none" stroke="#e08f8f" stroke-width="3" stroke-linecap="round" opacity="0.5"/>
    
  </g>
</svg>