<svg width="128" height="88" viewBox="0 0 128 88" xmlns="http://www.w3.org/2000/svg">
  <defs>
    <filter id="shadow" x="-20%" y="-20%" width="140%" height="140%">
      <feDropShadow dx="2" dy="2" stdDeviation="2" flood-color="#000" flood-opacity="0.3"/>
    </filter>
<linearGradient id="pile-ham-grad" x1="0%" y1="0%" x2="0%" y2="100%">\n<stop offset="0%" stop-color="#FFB6C1"/>\n<stop offset="100%" stop-color="#CD5C5C"/>\n</linearGradient>\n
  </defs>
  <g filter="url(#shadow)">
<!-- Base shadow -->\n  <ellipse cx="64" cy="65" rx="50" ry="20" fill="#000" opacity="0.3" />\n<path d="M 20 60 Q 40 30 60 40 Q 80 50 70 65 Q 50 80 20 60" fill="url(#pile-ham-grad)" stroke="#B22222" stroke-width="2" />\n<path d="M 50 50 Q 60 20 90 30 Q 110 40 100 60 Q 70 75 50 50" fill="url(#pile-ham-grad)" stroke="#B22222" stroke-width="2" />\n<path d="M 70 45 Q 90 20 110 35 Q 120 55 90 70" fill="url(#pile-ham-grad)" stroke="#B22222" stroke-width="2" />\n<path d="M 35 45 Q 50 15 80 25 Q 100 40 70 60 Q 40 50 35 45" fill="#FFC0CB" stroke="#B22222" stroke-width="2" />\n<!-- glossy highlights -->\n<path d="M 45 30 Q 60 20 75 25" fill="none" stroke="#FFF" stroke-width="3" stroke-linecap="round" opacity="0.6"/>\n<path d="M 60 45 Q 80 35 90 50" fill="none" stroke="#FFF" stroke-width="2" stroke-linecap="round" opacity="0.5"/>\n
  </g>
</svg>