<svg width="128" height="88" viewBox="0 0 128 88" xmlns="http://www.w3.org/2000/svg">
  <defs>
    <filter id="shadow" x="-20%" y="-20%" width="140%" height="140%">
      <feDropShadow dx="2" dy="2" stdDeviation="2" flood-color="#000" flood-opacity="0.3"/>
    </filter>
<linearGradient id="pile-rb-grad" x1="0%" y1="0%" x2="0%" y2="100%">\n<stop offset="0%" stop-color="#a64d4d"/>\n<stop offset="100%" stop-color="#4d1a1a"/>\n</linearGradient>\n
  </defs>
  <g filter="url(#shadow)">
<!-- Base shadow -->\n  <ellipse cx="64" cy="65" rx="50" ry="20" fill="#000" opacity="0.3" />\n<path d="M 20 55 C 30 20, 70 20, 80 45 C 90 70, 40 80, 20 55 Z" fill="url(#pile-rb-grad)" stroke="#260d0d" stroke-width="2" />\n<path d="M 50 45 C 60 10, 100 10, 110 35 C 120 60, 70 70, 50 45 Z" fill="url(#pile-rb-grad)" stroke="#260d0d" stroke-width="2" />\n<path d="M 35 40 C 45 5, 85 5, 95 30 C 105 55, 55 65, 35 40 Z" fill="#803333" stroke="#260d0d" stroke-width="2" />\n<!-- glossy highlights -->\n<path d="M 45 25 Q 65 15 80 25" fill="none" stroke="#e6b3b3" stroke-width="2" stroke-linecap="round" opacity="0.5"/>\n<path d="M 35 40 Q 55 30 70 40" fill="none" stroke="#e6b3b3" stroke-width="2" stroke-linecap="round" opacity="0.4"/>\n
  </g>
</svg>