<svg width="128" height="256" viewBox="0 0 128 256" xmlns="http://www.w3.org/2000/svg">\n  <defs>\n    <filter id="shadow" x="-20%" y="-20%" width="140%" height="140%">\n      <feDropShadow dx="2" dy="2" stdDeviation="2" flood-color="#000" flood-opacity="0.3"/>\n    </filter>\n<linearGradient id="mayo-grad" x1="0%" y1="0%" x2="100%" y2="0%">\n  <stop offset="0%" stop-color="#E0E0E0"/>\n  <stop offset="30%" stop-color="#FFFFFF"/>\n  <stop offset="80%" stop-color="#F5F5F5"/>\n  <stop offset="100%" stop-color="#9E9E9E"/>\n</linearGradient>\n<linearGradient id="cap-mayo" x1="0%" y1="0%" x2="100%" y2="0%">\n  <stop offset="0%" stop-color="#0288D1"/>\n  <stop offset="40%" stop-color="#03A9F4"/>\n  <stop offset="100%" stop-color="#01579B"/>\n</linearGradient>\n  </defs>\n  <g filter="url(#shadow)">\n<!-- Bottle Body -->\n<path d="M 30 80 Q 24 100 24 140 L 24 200 Q 24 220 34 220 L 94 220 Q 104 220 104 200 L 104 140 Q 104 100 98 80 Z" fill="url(#mayo-grad)" stroke="#BDBDBD" stroke-width="2"/>\n<!-- Neck -->\n<path d="M 44 80 L 44 50 L 84 50 L 84 80 Z" fill="url(#mayo-grad)" stroke="#BDBDBD" stroke-width="2"/>\n<!-- Highlight -->\n<path d="M 35 100 L 35 200" fill="none" stroke="#FFF" stroke-width="6" stroke-linecap="round" opacity="0.8"/>\n<!-- Cap -->\n<path d="M 40 50 L 40 25 Q 40 20 45 20 L 83 20 Q 88 20 88 25 L 88 50 Z" fill="url(#cap-mayo)" stroke="#01579B" stroke-width="2"/>\n<path d="M 45 25 L 45 45" fill="none" stroke="#B3E5FC" stroke-width="3" stroke-linecap="round"/>\n<!-- Cone tip -->\n<path d="M 55 20 L 60 5 L 68 5 L 73 20 Z" fill="url(#cap-mayo)" stroke="#01579B" stroke-width="2"/>\n<!-- Label -->\n<path d="M 24 120 L 104 120 L 104 170 L 24 170 Z" fill="#E1F5FE" opacity="0.9"/>\n<path d="M 24 120 L 104 120" fill="none" stroke="#0288D1" stroke-width="2"/>\n<path d="M 24 170 L 104 170" fill="none" stroke="#0288D1" stroke-width="2"/>\n<text x="64" y="152" font-family="Arial, sans-serif" font-size="20" font-weight="900" fill="#01579B" text-anchor="middle" letter-spacing="1">MAYO</text>\n  </g>\n</svg>