<svg width="128" height="256" viewBox="0 0 128 256" xmlns="http://www.w3.org/2000/svg">\n  <defs>\n    <filter id="shadow" x="-20%" y="-20%" width="140%" height="140%">\n      <feDropShadow dx="2" dy="2" stdDeviation="2" flood-color="#000" flood-opacity="0.3"/>\n    </filter>\n<linearGradient id="must-grad" x1="0%" y1="0%" x2="100%" y2="0%">\n  <stop offset="0%" stop-color="#FBC02D"/>\n  <stop offset="30%" stop-color="#FFF176"/>\n  <stop offset="80%" stop-color="#FDD835"/>\n  <stop offset="100%" stop-color="#F57F17"/>\n</linearGradient>\n<linearGradient id="cap-must" x1="0%" y1="0%" x2="100%" y2="0%">\n  <stop offset="0%" stop-color="#C62828"/>\n  <stop offset="40%" stop-color="#F44336"/>\n  <stop offset="100%" stop-color="#B71C1C"/>\n</linearGradient>\n  </defs>\n  <g filter="url(#shadow)">\n<!-- Bottle Body -->\n<path d="M 30 80 Q 24 100 24 140 L 24 200 Q 24 220 34 220 L 94 220 Q 104 220 104 200 L 104 140 Q 104 100 98 80 Z" fill="url(#must-grad)" stroke="#F57F17" stroke-width="2"/>\n<!-- Neck -->\n<path d="M 44 80 L 44 50 L 84 50 L 84 80 Z" fill="url(#must-grad)" stroke="#F57F17" stroke-width="2"/>\n<!-- Highlight -->\n<path d="M 35 100 L 35 200" fill="none" stroke="#FFF" stroke-width="6" stroke-linecap="round" opacity="0.6"/>\n<!-- Cap -->\n<path d="M 40 50 L 40 25 Q 40 20 45 20 L 83 20 Q 88 20 88 25 L 88 50 Z" fill="url(#cap-must)" stroke="#B71C1C" stroke-width="2"/>\n<path d="M 45 25 L 45 45" fill="none" stroke="#FFCDD2" stroke-width="3" stroke-linecap="round"/>\n<!-- Cone tip -->\n<path d="M 55 20 L 60 5 L 68 5 L 73 20 Z" fill="url(#cap-must)" stroke="#B71C1C" stroke-width="2"/>\n<!-- Label -->\n<path d="M 24 120 L 104 120 L 104 170 L 24 170 Z" fill="#FFEB3B" opacity="0.9"/>\n<path d="M 24 120 L 104 120" fill="none" stroke="#C62828" stroke-width="2"/>\n<path d="M 24 170 L 104 170" fill="none" stroke="#C62828" stroke-width="2"/>\n<text x="64" y="152" font-family="Arial, sans-serif" font-size="16" font-weight="900" fill="#B71C1C" text-anchor="middle" letter-spacing="0.5">MUSTARD</text>\n  </g>\n</svg>