<svg width="256" height="256" viewBox="0 0 256 256" xmlns="http://www.w3.org/2000/svg">\n  <defs>\n    <filter id="shadow" x="-20%" y="-20%" width="140%" height="140%">\n      <feDropShadow dx="2" dy="2" stdDeviation="2" flood-color="#000" flood-opacity="0.3"/>\n    </filter>\n<radialGradient id="tom-grad" cx="40%" cy="40%" r="60%">\n  <stop offset="0%" stop-color="#FF5252"/>\n  <stop offset="70%" stop-color="#D32F2F"/>\n  <stop offset="100%" stop-color="#B71C1C"/>\n</radialGradient>\n<linearGradient id="tom-flesh" x1="0%" y1="0%" x2="100%" y2="100%">\n  <stop offset="0%" stop-color="#FF5252"/>\n  <stop offset="100%" stop-color="#E53935"/>\n</linearGradient>\n  </defs>\n  <g filter="url(#shadow)">\n<circle cx="128" cy="128" r="80" fill="url(#tom-grad)" stroke="#B71C1C" stroke-width="4"/>\n<circle cx="128" cy="128" r="65" fill="url(#tom-flesh)" opacity="0.9"/>\n<!-- Segments -->\n<path d="M 128 128 L 88 88 Q 128 68 168 88 Z" fill="#B71C1C" opacity="0.8"/>\n<path d="M 128 128 L 168 88 Q 188 128 168 168 Z" fill="#B71C1C" opacity="0.8"/>\n<path d="M 128 128 L 168 168 Q 128 188 88 168 Z" fill="#B71C1C" opacity="0.8"/>\n<path d="M 128 128 L 88 168 Q 68 128 88 88 Z" fill="#B71C1C" opacity="0.8"/>\n<!-- Seeds -->\n<circle cx="120" cy="100" r="3" fill="#FFCDD2"/><circle cx="136" cy="100" r="3" fill="#FFCDD2"/>\n<circle cx="156" cy="120" r="3" fill="#FFCDD2"/><circle cx="156" cy="136" r="3" fill="#FFCDD2"/>\n<circle cx="136" cy="156" r="3" fill="#FFCDD2"/><circle cx="120" cy="156" r="3" fill="#FFCDD2"/>\n<circle cx="100" cy="136" r="3" fill="#FFCDD2"/><circle cx="100" cy="120" r="3" fill="#FFCDD2"/>\n<!-- Center -->\n<circle cx="128" cy="128" r="8" fill="#FF8A80" opacity="0.8"/>\n<!-- Gloss -->\n<path d="M 70 128 A 58 58 0 0 1 128 70" fill="none" stroke="#FFF" stroke-width="5" stroke-linecap="round" opacity="0.6"/>\n<path d="M 100 80 Q 120 70 140 85" fill="none" stroke="#FFF" stroke-width="4" stroke-linecap="round" opacity="0.8"/>\n  </g>\n</svg>