<svg width="256" height="256" viewBox="0 0 256 256" xmlns="http://www.w3.org/2000/svg">
  <defs>
    <filter id="shadow" x="-20%" y="-20%" width="140%" height="140%">
      <feGaussianBlur in="SourceAlpha" stdDeviation="3"/>
      <feOffset dx="2" dy="2" result="offsetblur"/>
      <feComponentTransfer>
        <feFuncA type="linear" slope="0.35"/>
      </feComponentTransfer>
      <feMerge>
        <feMergeNode in="offsetblur"/>
        <feMergeNode in="SourceGraphic"/>
      </feMerge>
    </filter>
    <linearGradient id="leafGrad1" x1="0%" y1="0%" x2="100%" y2="100%">
      <stop offset="0%" stop-color="#2E9B2E"/>
      <stop offset="100%" stop-color="#1A6B1A"/>
    </linearGradient>
    <linearGradient id="leafGrad2" x1="0%" y1="0%" x2="100%" y2="100%">
      <stop offset="0%" stop-color="#339933"/>
      <stop offset="100%" stop-color="#1E7A1E"/>
    </linearGradient>
  </defs>
  <g filter="url(#shadow)">
    <!-- Leaf 1 - serrated edges -->
    <path d="M75,168 Q52,140 55,110 Q58,90 68,80 L78,72 Q82,78 88,75 L95,68 Q98,76 105,78 Q98,95 92,118 Q86,145 75,168 Z" fill="url(#leafGrad1)" stroke="#005500" stroke-width="1.5"/>
    <path d="M75,168 L80,100" stroke="#7CFC7C" stroke-width="1.5" opacity="0.45"/>
    <path d="M80,120 L72,130" stroke="#7CFC7C" stroke-width="1" opacity="0.3"/>

    <!-- Leaf 2 (tallest) - serrated -->
    <path d="M118,160 Q95,120 100,85 Q105,68 115,58 L125,50 Q128,56 135,54 L142,48 Q145,58 152,60 Q145,80 138,108 Q130,138 118,160 Z" fill="url(#leafGrad2)" stroke="#005500" stroke-width="1.5"/>
    <path d="M118,160 L128,78" stroke="#7CFC7C" stroke-width="1.5" opacity="0.45"/>
    <path d="M126,100 L118,112" stroke="#7CFC7C" stroke-width="1" opacity="0.3"/>
    <path d="M130,85 L140,92" stroke="#7CFC7C" stroke-width="1" opacity="0.25"/>

    <!-- Leaf 3 - serrated -->
    <path d="M162,165 Q142,135 148,102 Q152,85 162,75 L172,66 Q175,72 182,70 L188,64 Q190,74 198,76 Q192,95 185,122 Q178,148 162,165 Z" fill="url(#leafGrad1)" stroke="#005500" stroke-width="1.5"/>
    <path d="M162,165 L172,88" stroke="#7CFC7C" stroke-width="1.5" opacity="0.45"/>
    <path d="M170,110 L162,120" stroke="#7CFC7C" stroke-width="1" opacity="0.3"/>

    <!-- Leaf 4 (background, lighter) -->
    <path d="M95,178 Q78,155 82,128 Q85,112 94,102 L104,95 Q106,100 112,98 Q108,112 102,135 Q96,158 95,178 Z" fill="#3CB371" stroke="#005500" stroke-width="1.2" opacity="0.85"/>
    <path d="M95,178 L98,115" stroke="#7CFC7C" stroke-width="1.2" opacity="0.35"/>

    <!-- Leaf 5 (background) -->
    <path d="M142,175 Q125,148 130,118 Q134,102 142,92 L152,85 Q154,90 160,88 Q155,105 148,132 Q142,155 142,175 Z" fill="#2D8B2D" stroke="#005500" stroke-width="1.2" opacity="0.85"/>
    <path d="M142,175 L145,105" stroke="#7CFC7C" stroke-width="1.2" opacity="0.35"/>

    <!-- Leaf 6 (small accent) -->
    <path d="M185,175 Q172,155 175,135 Q178,122 185,115 L192,110 Q188,125 185,145 Q183,160 185,175 Z" fill="#2E8B2E" stroke="#005500" stroke-width="1" opacity="0.7"/>

    <!-- Stem base -->
    <path d="M118,175 Q125,180 132,175" stroke="#4A7A2A" stroke-width="2" fill="none" opacity="0.5"/>
  </g>
</svg>
