<svg width="256" height="256" viewBox="0 0 256 256" xmlns="http://www.w3.org/2000/svg">\n  <defs>\n    <filter id="shadow" x="-20%" y="-20%" width="140%" height="140%">\n      <feDropShadow dx="2" dy="2" stdDeviation="2" flood-color="#000" flood-opacity="0.3"/>\n    </filter>\n<linearGradient id="aru-grad" x1="0%" y1="0%" x2="100%" y2="100%">\n  <stop offset="0%" stop-color="#4CAF50"/>\n  <stop offset="100%" stop-color="#1B5E20"/>\n</linearGradient>\n  </defs>\n  <g filter="url(#shadow)">\n<!-- Spiky Leaf -->\n<path d="M 128 210 Q 120 180 100 160 Q 60 150 70 120 Q 90 120 100 90 Q 70 70 90 40 Q 128 20 150 50 Q 180 60 160 90 Q 180 120 150 140 Q 180 170 140 180 Q 130 200 128 210 Z" fill="url(#aru-grad)" stroke="#1B5E20" stroke-width="3" stroke-linejoin="round"/>\n<!-- Central stem and veins -->\n<path d="M 128 210 Q 128 150 120 40" fill="none" stroke="#C8E6C9" stroke-width="4" stroke-linecap="round" opacity="0.9"/>\n<path d="M 128 160 Q 90 150 75 125 M 128 140 Q 160 140 170 110 M 125 100 Q 90 90 80 50 M 125 80 Q 160 70 170 60" fill="none" stroke="#C8E6C9" stroke-width="2.5" stroke-linecap="round" opacity="0.7"/>\n<!-- Gloss -->\n<path d="M 110 50 Q 120 35 130 40" fill="none" stroke="#FFF" stroke-width="3" stroke-linecap="round" opacity="0.5"/>\n  </g>\n</svg>