<svg width="256" height="256" viewBox="0 0 256 256" xmlns="http://www.w3.org/2000/svg">\n  <defs>\n    <filter id="shadow" x="-20%" y="-20%" width="140%" height="140%">\n      <feDropShadow dx="2" dy="2" stdDeviation="2" flood-color="#000" flood-opacity="0.3"/>\n    </filter>\n<radialGradient id="let-grad" cx="50%" cy="50%" r="50%">\n  <stop offset="30%" stop-color="#C8E6C9"/>\n  <stop offset="80%" stop-color="#81C784"/>\n  <stop offset="100%" stop-color="#4CAF50"/>\n</radialGradient>\n  </defs>\n  <g filter="url(#shadow)">\n<!-- Leaf outline -->\n<path d="M 128 200 C 60 200, 30 160, 40 100 C 50 40, 90 20, 140 40 C 200 60, 240 100, 200 160 C 180 200, 150 200, 128 200 Z" fill="url(#let-grad)" stroke="#388E3C" stroke-width="4" stroke-linejoin="round"/>\n<!-- Ruffles/Folds -->\n<path d="M 40 100 C 50 140, 80 180, 128 180 C 160 180, 190 150, 200 120" fill="none" stroke="#388E3C" stroke-width="3" stroke-linecap="round" opacity="0.5"/>\n<path d="M 60 70 C 80 50, 120 40, 160 70" fill="none" stroke="#388E3C" stroke-width="3" stroke-linecap="round" opacity="0.5"/>\n<!-- Veins -->\n<path d="M 128 180 Q 128 120 120 60 M 128 160 Q 90 140 70 110 M 128 140 Q 160 130 180 100 M 125 100 Q 100 90 80 70 M 125 80 Q 150 70 160 50" fill="none" stroke="#E8F5E9" stroke-width="4" stroke-linecap="round" opacity="0.8"/>\n<!-- Leaf gloss -->\n<path d="M 70 150 Q 80 170 100 170 M 150 60 Q 180 60 190 80" fill="none" stroke="#FFF" stroke-width="5" stroke-linecap="round" opacity="0.5"/>\n  </g>\n</svg>