<svg width="128" height="128" viewBox="0 0 128 128" xmlns="http://www.w3.org/2000/svg">
  <!-- Stack of slices -->
  <path d="M 20 90 L 90 90 L 100 80 L 30 80 Z" fill="#FFC107" stroke="#FF9800" stroke-width="2" />
  <path d="M 30 80 L 30 85 L 100 85 L 100 80" fill="#FFB300" />
  
  <path d="M 22 82 L 92 82 L 102 72 L 32 72 Z" fill="#FFC107" stroke="#FF9800" stroke-width="2" />
  <path d="M 32 72 L 32 77 L 102 77 L 102 72" fill="#FFB300" />
  
  <path d="M 18 74 L 88 74 L 98 64 L 28 64 Z" fill="#FFC107" stroke="#FF9800" stroke-width="2" />
  <path d="M 28 64 L 28 69 L 98 69 L 98 64" fill="#FFB300" />
  
  <path d="M 25 66 L 95 66 L 105 56 L 35 56 Z" fill="#FFC107" stroke="#FF9800" stroke-width="2" />
  <path d="M 35 56 L 35 61 L 105 61 L 105 56" fill="#FFB300" />
  
  <!-- Top slice (slightly askew) -->
  <path d="M 20 58 L 90 58 L 100 48 L 30 48 Z" fill="#FFCA28" stroke="#FF9800" stroke-width="2" />
</svg>
